<svg xmlns="http://www.w3.org/2000/svg" xmlns:xlink="http://www.w3.org/1999/xlink" version="1.1" id="Layer_1" x="0" y="0" viewBox="0 0 74 28" xml:space="preserve"><style type="text/css">
	.st0{fill:#231F20;}
</style><path class="st0" d="M18.8 0l10.3 28h-8l-1.7-4.9H9.8L8.2 28H0L10.3 0H18.8zM11.8 17.1h5.6l-1.4-4.8c-0.5-1.6-0.9-3.2-1.4-4.8 -0.4 1.6-0.9 3.2-1.4 4.8L11.8 17.1zM74 0v6.5h-5.7V28h-7.7V6.5h-5.7V0H74zM43.8 0v9.6L36.1 0h-9.4L35 11.2c-0.8 0.3-1.1 0.5-1.4 0.7 -0.8 0.5-1.3 1.2-1.6 1.4 -1.8 2.1-2.1 4.8-2.1 5.7 0 0.9 0.2 8.9 10.6 8.9 0.1 0 0.2 0 0.3 0h10.5V0H43.8zM41.2 21.8c-1.8 0-3.2-1.4-3.2-3.2 0-1.8 1.4-3.2 3.2-3.2 1.8 0 3.2 1.4 3.2 3.2C44.4 20.4 43 21.8 41.2 21.8z"/></svg>