<svg
    xmlns="http://www.w3.org/2000/svg"
    xmlns:xlink="http://www.w3.org/1999/xlink"
    width="40" 
    height="287">
  <defs>
    <symbol id="cross">
        <path d="M40.179 20.1935C40.179 31.2391 31.2247 40.1935 20.179 40.1935C9.13326 40.1935 0.178955 31.2391 0.178955 20.1935C0.178955 9.14776 9.13326 0.193451 20.179 0.193451C31.2247 0.193451 40.179 9.14776 40.179 20.1935Z" />
        <path d="M20.179 23.4034L26.5983 29.8228L29.4268 26.9943L23.0074 20.575L29.8083 13.7741L26.9798 10.9457L20.179 17.7465L13.3781 10.9457L10.5497 13.7741L17.3505 20.575L10.9312 26.9943L13.7596 29.8228L20.179 23.4034Z" fill="white"/>

    </symbol>

    <symbol id="noval">
        <path d="M40.179 20.2672C40.179 31.3129 31.2247 40.2672 20.179 40.2672C9.13326 40.2672 0.178955 31.3129 0.178955 20.2672C0.178955 9.22149 9.13326 0.267181 20.179 0.267181C31.2247 0.267181 40.179 9.22149 40.179 20.2672Z" fill="white"/>
        <path fill-rule="evenodd" clip-rule="evenodd" d="M20.179 36.2672C29.0155 36.2672 36.179 29.1037 36.179 20.2672C36.179 11.4306 29.0155 4.26718 20.179 4.26718C11.3424 4.26718 4.17896 11.4306 4.17896 20.2672C4.17896 29.1037 11.3424 36.2672 20.179 36.2672ZM20.179 40.2672C31.2247 40.2672 40.179 31.3129 40.179 20.2672C40.179 9.22149 31.2247 0.267181 20.179 0.267181C9.13326 0.267181 0.178955 9.22149 0.178955 20.2672C0.178955 31.3129 9.13326 40.2672 20.179 40.2672Z" />
  </symbol>

    <symbol id="tick">
        <path d="M40.179 20.3409C40.179 31.3866 31.2247 40.3409 20.179 40.3409C9.13326 40.3409 0.178955 31.3866 0.178955 20.3409C0.178955 9.29522 9.13326 0.340912 20.179 0.340912C31.2247 0.340912 40.179 9.29522 40.179 20.3409Z"     />
        <path d="M30.5039 14.7305L27.6295 11.9489L17.1083 22.8208L12.8705 17.9552L9.85413 20.5823L16.9531 28.733L30.5039 14.7305Z" fill="white"/>

    </symbol>

    <symbol id="cal">
        <path d="M40.179 20.9214C40.179 31.9671 31.2247 40.9214 20.179 40.9214C9.13326 40.9214 0.178955 31.9671 0.178955 20.9214C0.178955 9.87569 9.13326 0.921387 20.179 0.921387C31.2247 0.921387 40.179 9.87569 40.179 20.9214Z" />
        <path fill-rule="evenodd" clip-rule="evenodd" d="M17.9876 11.2511V14.4963H22.0292V11.2511H26.0146V14.4963H29.4695V14.5069H30.2205V30.5537H29.3562V30.5917H11.0017V30.5537H10.1375L10.1375 14.4966L13.9459 14.4963V11.2511H17.9876ZM26.2205 18.9848H14.1375L14.1375 26.5917H26.2205V18.9848Z" fill="white"/>

    </symbol>

    <symbol id="minus">
        <path d="M40.179 20.9204C40.179 31.9661 31.2247 40.9204 20.179 40.9204C9.13326 40.9204 0.178955 31.9661 0.178955 20.9204C0.178955 9.87468 9.13326 0.92038 20.179 0.92038C31.2247 0.92038 40.179 9.87468 40.179 20.9204Z" />
        <path fill-rule="evenodd" clip-rule="evenodd" d="M30.1833 22.9203L10.1746 22.9204L10.1746 18.9204L30.1833 18.9203L30.1833 22.9203Z" fill="white"/>

    </symbol>


  </defs>
  <use xlink:href="#cross" x="0" y="0"   fill="#959595" />
  <use xlink:href="#noval" x="0" y="41"   fill="#959595"/>
  <use xlink:href="#tick" x="0" y="82"  fill="#1E29C1" />
  <use xlink:href="#tick" x="0" y="123"  fill="#00774B" />
  <use xlink:href="#cal" x="0" y="164"  fill="#959595" />
  <use xlink:href="#cal" x="0" y="205"  fill="#1E29C1" />
  <use xlink:href="#minus" x="0" y="246"  fill="#959595" />

</svg>