<svg
    xmlns="http://www.w3.org/2000/svg"
    xmlns:xlink="http://www.w3.org/1999/xlink"
    width="68" 
    height="3604">

  <defs>
    <symbol id="Eye">
      <path d="M65.557 35.0539C65.557 52.4211 51.2174 66.5 33.5285 66.5C15.8396 66.5 1.5 52.4211 1.5 35.0539C1.5 17.6867 15.8396 3.60785 33.5285 3.60785C51.2174 3.60785 65.557 17.6867 65.557 35.0539Z" fill="white"/>
      <path d="M31.1905 28.6596C26.4555 29.266 22.5659 31.7118 20.6964 34.0314C20.1766 34.6764 19.2322 34.7779 18.5872 34.258C17.9422 33.7382 17.8407 32.7939 18.3606 32.1488C20.7484 29.1861 25.3588 26.3819 30.8094 25.6839C36.3384 24.9758 42.7281 26.4342 48.5642 32.0051C49.1635 32.5771 49.1855 33.5266 48.6135 34.1258C48.0415 34.7251 47.092 34.7472 46.4928 34.1752C41.3289 29.246 35.8473 28.0632 31.1905 28.6596Z" />
      <path fill-rule="evenodd" clip-rule="evenodd" d="M38.5284 38.0901C38.5284 40.8516 36.2899 43.0901 33.5284 43.0901C30.767 43.0901 28.5284 40.8516 28.5284 38.0901C28.5284 35.3287 30.767 33.0901 33.5284 33.0901C36.2899 33.0901 38.5284 35.3287 38.5284 38.0901ZM35.5284 38.0901C35.5284 39.1947 34.633 40.0901 33.5284 40.0901C32.4239 40.0901 31.5284 39.1947 31.5284 38.0901C31.5284 36.9856 32.4239 36.0901 33.5284 36.0901C34.633 36.0901 35.5284 36.9856 35.5284 38.0901Z" />
      <path fill-rule="evenodd" clip-rule="evenodd" d="M0 35.0539C0 16.8325 15.0373 2.10785 33.5285 2.10785C52.0197 2.10785 67.057 16.8325 67.057 35.0539C67.057 53.2754 52.0197 68 33.5285 68C15.0373 68 0 53.2754 0 35.0539ZM33.5285 5.10785C16.642 5.10785 3 18.541 3 35.0539C3 51.5669 16.642 65 33.5285 65C50.415 65 64.057 51.5669 64.057 35.0539C64.057 18.541 50.415 5.10785 33.5285 5.10785Z" />

    </symbol>
    
    <symbol id="EyeF">
      <path d="M34.2341 1.03784C15.612 1.03784 0.46825 16.0016 0.46825 34.5189C0.46825 53.0363 15.612 68 34.2341 68C52.8562 68 68 53.0363 68 34.5189C68 16.0016 52.8562 1.03784 34.2341 1.03784Z" />
      <path d="M21.3112 33.4798C23.1939 31.1225 27.111 28.637 31.8796 28.0207C36.5693 27.4147 42.0898 28.6167 47.2902 33.6259C47.8937 34.2072 48.8499 34.1847 49.4259 33.5758C50.002 32.9668 49.9798 32.0019 49.3763 31.4206C43.4988 25.7593 37.0639 24.2772 31.4958 24.9967C26.0066 25.7061 21.3636 28.5558 18.9588 31.5667C18.4353 32.2222 18.5375 33.1818 19.1871 33.7101C19.8366 34.2384 20.7876 34.1353 21.3112 33.4798Z" fill="white"/>
      <path fill-rule="evenodd" clip-rule="evenodd" d="M39.2695 37.6045C39.2695 40.4107 37.015 42.6856 34.2341 42.6856C31.4531 42.6856 29.1987 40.4107 29.1987 37.6045C29.1987 34.7982 31.4531 32.5233 34.2341 32.5233C37.015 32.5233 39.2695 34.7982 39.2695 37.6045ZM36.2482 37.6045C36.2482 38.727 35.3465 39.6369 34.2341 39.6369C33.1217 39.6369 32.2199 38.727 32.2199 37.6045C32.2199 36.4819 33.1217 35.572 34.2341 35.572C35.3465 35.572 36.2482 36.4819 36.2482 37.6045Z" fill="white"/>


    </symbol>
    
    <symbol id="Tick">
      <path d="M66.4999 34C66.4999 51.3672 52.1602 65.4461 34.4714 65.4461C16.7825 65.4461 2.44287 51.3672 2.44287 34C2.44287 16.6328 16.7825 2.55392 34.4714 2.55392C52.1602 2.55392 66.4999 16.6328 66.4999 34Z" fill="white"/>
      <path d="M47.1163 26.6672L44.9605 24.581L31.073 38.9314L25.4415 32.4656L23.1792 34.4359L30.9566 43.3656L47.1163 26.6672Z" />
      <path fill-rule="evenodd" clip-rule="evenodd" d="M34.4715 1.05392C15.9803 1.05392 0.942993 15.7786 0.942993 34C0.942993 52.2215 15.9803 66.9461 34.4715 66.9461C52.9627 66.9461 68 52.2215 68 34C68 15.7786 52.9627 1.05392 34.4715 1.05392ZM3.94299 34C3.94299 17.4871 17.585 4.05392 34.4715 4.05392C51.358 4.05392 65 17.4871 65 34C65 50.5129 51.358 63.9461 34.4715 63.9461C17.585 63.9461 3.94299 50.5129 3.94299 34Z" />

    </symbol>

    <symbol id="Cross">
      <path d="M66.9715 35.0539C66.9715 52.4211 52.6318 66.5 34.943 66.5C17.2541 66.5 2.91449 52.4211 2.91449 35.0539C2.91449 17.6867 17.2541 3.60785 34.943 3.60785C52.6318 3.60785 66.9715 17.6867 66.9715 35.0539Z" fill="white"/>
      <path d="M33.202 46.6165V37.0965H23.682V33.0965H33.202V22.8166H37.202V33.0965H47.4819V37.0965H37.202V46.6165H33.202Z" />
      <path fill-rule="evenodd" clip-rule="evenodd" d="M34.943 2.10785C16.4518 2.10785 1.41449 16.8325 1.41449 35.0539C1.41449 53.2754 16.4518 68 34.943 68C53.4342 68 68.4715 53.2754 68.4715 35.0539C68.4715 16.8325 53.4342 2.10785 34.943 2.10785ZM4.41449 35.0539C4.41449 18.541 18.0565 5.10785 34.943 5.10785C51.8295 5.10785 65.4715 18.541 65.4715 35.0539C65.4715 51.5669 51.8295 65 34.943 65C18.0565 65 4.41449 51.5669 4.41449 35.0539Z" />

    </symbol>

    <symbol id="CrossF">
      <path d="M34.4715 2.10785C15.9803 2.10785 0.942993 16.8325 0.942993 35.0539C0.942993 53.2754 15.9803 68 34.4715 68C52.9627 68 68 53.2754 68 35.0539C68 16.8325 52.9627 2.10785 34.4715 2.10785Z" />
      <path d="M32.7305 37.0965V46.6165H36.7305V37.0965H47.0105V33.0965H36.7305V22.8166H32.7305V33.0965H23.2105V37.0965H32.7305Z" fill="white"/>

    </symbol>

    <symbol id="Speech">
      <path d="M66.5 34C66.5 51.3672 52.1604 65.4461 34.4715 65.4461C16.7826 65.4461 2.44299 51.3672 2.44299 34C2.44299 16.6328 16.7826 2.55392 34.4715 2.55392C52.1604 2.55392 66.5 16.6328 66.5 34Z" fill="white"/>
      <path fill-rule="evenodd" clip-rule="evenodd" d="M20.0185 34.1994C20.0185 36.79 21.6255 39.2089 23.2893 40.9196L22.8498 43.5569L22.575 45.7553C22.3013 47.9445 24.7907 49.3891 26.5557 48.0654L30.8935 44.812C31.9378 45.0167 33.3745 45.2733 34.4715 45.2733C38.3365 45.2733 41.8949 44.1174 44.5222 42.1755C47.1492 40.2338 48.9245 37.4307 48.9245 34.1994C48.9245 30.9681 47.1492 28.165 44.5222 26.2233C41.8949 24.2814 38.3365 23.1255 34.4715 23.1255C30.6065 23.1255 27.0482 24.2814 24.4208 26.2233C21.7938 28.165 20.0185 30.9681 20.0185 34.1994ZM26.204 28.6359C24.1429 30.1593 23.0185 32.1431 23.0185 34.1994C23.0185 35.8052 24.2356 37.7286 25.9015 39.2796C26.2688 39.611 26.4645 40.1168 26.3772 40.6409L25.819 43.9898L25.6979 44.9587L29.6293 42.0102C29.9861 41.7426 30.4232 41.658 30.8284 41.7403L30.8835 41.7513C32.0175 41.9772 33.5038 42.2733 34.4715 42.2733C37.7603 42.2733 40.6784 41.286 42.7391 39.7629C44.8001 38.2395 45.9245 36.2557 45.9245 34.1994C45.9245 32.1431 44.8001 30.1593 42.7391 28.6359C40.6784 27.1128 37.7603 26.1255 34.4715 26.1255C31.1827 26.1255 28.2646 27.1128 26.204 28.6359Z" />
      <path fill-rule="evenodd" clip-rule="evenodd" d="M34.4715 1.05392C15.9803 1.05392 0.942993 15.7786 0.942993 34C0.942993 52.2215 15.9803 66.9461 34.4715 66.9461C52.9627 66.9461 68 52.2215 68 34C68 15.7786 52.9627 1.05392 34.4715 1.05392ZM3.94299 34C3.94299 17.4871 17.585 4.05392 34.4715 4.05392C51.358 4.05392 65 17.4871 65 34C65 50.5129 51.358 63.9461 34.4715 63.9461C17.585 63.9461 3.94299 50.5129 3.94299 34Z" />

    </symbol>

    <symbol id="SpeechF">
      <path d="M34.4715 1.05392C15.9803 1.05392 0.942993 15.7786 0.942993 34C0.942993 52.2215 15.9803 66.9461 34.4715 66.9461C52.9627 66.9461 68 52.2215 68 34C68 15.7786 52.9627 1.05392 34.4715 1.05392Z" />
      <path fill-rule="evenodd" clip-rule="evenodd" d="M23.2893 40.9196C21.6255 39.2089 20.0185 36.79 20.0185 34.1994C20.0185 30.9681 21.7938 28.165 24.4208 26.2233C27.0482 24.2814 30.6065 23.1255 34.4715 23.1255C38.3365 23.1255 41.8949 24.2814 44.5222 26.2233C47.1492 28.165 48.9245 30.9681 48.9245 34.1994C48.9245 37.4307 47.1492 40.2338 44.5222 42.1755C41.8949 44.1174 38.3365 45.2733 34.4715 45.2733C33.3745 45.2733 31.9378 45.0167 30.8935 44.812L26.5557 48.0654C24.7907 49.3891 22.3013 47.9445 22.575 45.7553L22.8498 43.5569L23.2893 40.9196ZM23.0185 34.1994C23.0185 32.1431 24.1429 30.1593 26.204 28.6359C28.2646 27.1128 31.1827 26.1255 34.4715 26.1255C37.7603 26.1255 40.6784 27.1128 42.7391 28.6359C44.8001 30.1593 45.9245 32.1431 45.9245 34.1994C45.9245 36.2557 44.8001 38.2395 42.7391 39.7629C40.6784 41.286 37.7603 42.2733 34.4715 42.2733C33.5038 42.2733 32.0175 41.9772 30.8835 41.7513L30.8284 41.7403C30.4232 41.658 29.9861 41.7426 29.6293 42.0102L25.6979 44.9587L25.819 43.9898L26.3772 40.6409C26.4645 40.1168 26.2688 39.611 25.9015 39.2796C24.2356 37.7286 23.0185 35.8052 23.0185 34.1994Z" fill="white"/>

    </symbol>

    <symbol id="NE">
      <path d="M66.5 34.1458C66.5 51.513 52.1603 65.5919 34.4715 65.5919C16.7826 65.5919 2.44299 51.513 2.44299 34.1458C2.44299 16.7786 16.7826 2.69974 34.4715 2.69974C52.1603 2.69974 66.5 16.7786 66.5 34.1458Z" fill="white"/>
      <path d="M25.4715 25.1458V28.1458H37.8043L24.9256 41.0245L27.0469 43.1459L40.4715 29.7212V43.1458H43.4715V25.1458H25.4715Z" />
      <path fill-rule="evenodd" clip-rule="evenodd" d="M34.4715 1.19974C15.9803 1.19974 0.942986 15.9244 0.942986 34.1458C0.942986 52.3673 15.9803 67.0919 34.4715 67.0919C52.9627 67.0919 68 52.3673 68 34.1458C68 15.9244 52.9627 1.19974 34.4715 1.19974ZM3.94299 34.1458C3.94299 17.6329 17.585 4.19974 34.4715 4.19974C51.358 4.19974 65 17.6329 65 34.1458C65 50.6587 51.358 64.0919 34.4715 64.0919C17.585 64.0919 3.94299 50.6587 3.94299 34.1458Z" />

    </symbol>

    <symbol id="NEF">
      <path d="M34 1.19977C15.5088 1.19977 0.471497 15.9244 0.471497 34.1458C0.471497 52.3673 15.5088 67.0919 34 67.0919C52.4912 67.0919 67.5285 52.3673 67.5285 34.1458C67.5285 15.9244 52.4912 1.19977 34 1.19977Z" />
      <path d="M37.3328 28.1459H25V25.1459H43V43.1459H40V29.7213L26.5754 43.1459L24.4541 41.0246L37.3328 28.1459Z" fill="white"/>
    </symbol>

    <symbol id="E">
      <path d="M65.557 34.1458C65.557 51.513 51.2174 65.5919 33.5285 65.5919C15.8396 65.5919 1.5 51.513 1.5 34.1458C1.5 16.7786 15.8396 2.69971 33.5285 2.69971C51.2174 2.69971 65.557 16.7786 65.557 34.1458Z" fill="white"/>
      <path d="M42.2998 35.374L31.5442 46.9445L28.8209 44.0147L37.5007 34.6772L29.459 26.0262L32.1823 23.0965L42.9379 34.6669L42.2902 35.3637L42.2998 35.374Z" />
      <path fill-rule="evenodd" clip-rule="evenodd" d="M0 34.1458C0 15.9243 15.0373 1.19971 33.5285 1.19971C52.0197 1.19971 67.057 15.9243 67.057 34.1458C67.057 52.3672 52.0197 67.0919 33.5285 67.0919C15.0373 67.0919 0 52.3672 0 34.1458ZM33.5285 4.19971C16.642 4.19971 3 17.6329 3 34.1458C3 50.6587 16.642 64.0919 33.5285 64.0919C50.415 64.0919 64.057 50.6587 64.057 34.1458C64.057 17.6329 50.415 4.19971 33.5285 4.19971Z" />

    </symbol>

    <symbol id="EF">
      <path d="M34.4715 1.34576C15.9803 1.34576 0.942993 16.0704 0.942993 34.2918C0.942993 52.5133 15.9803 67.2379 34.4715 67.2379C52.9627 67.2379 68 52.5133 68 34.2918C68 16.0704 52.9627 1.34576 34.4715 1.34576Z" />
      <path d="M32.4872 47.0905L43.2427 35.52L43.2332 35.5098L43.8809 34.8131L33.1253 23.2426L30.402 26.1723L38.4437 34.8233L29.7639 44.1608L32.4872 47.0905Z" fill="white"/>

    </symbol>

    <symbol id="Pin">
      <path d="M66.0285 34.2918C66.0285 51.659 51.6889 65.7379 34 65.7379C16.3111 65.7379 1.9715 51.659 1.9715 34.2918C1.9715 16.9247 16.3111 2.84576 34 2.84576C51.6889 2.84576 66.0285 16.9247 66.0285 34.2918Z" fill="white"/>
      <path fill-rule="evenodd" clip-rule="evenodd" d="M34 4.34576C17.1135 4.34576 3.4715 17.7789 3.4715 34.2918C3.4715 50.8048 17.1135 64.2379 34 64.2379C50.8865 64.2379 64.5285 50.8048 64.5285 34.2918C64.5285 17.7789 50.8865 4.34576 34 4.34576ZM0.471497 34.2918C0.471497 16.0704 15.5088 1.34576 34 1.34576C52.4912 1.34576 67.5285 16.0704 67.5285 34.2918C67.5285 52.5133 52.4912 67.2379 34 67.2379C15.5088 67.2379 0.471497 52.5133 0.471497 34.2918Z" />
      <path d="M34 20.9501C28.7114 20.9501 24.4241 25.2373 24.4241 30.5259C24.4241 32.0784 24.5867 32.5476 24.8876 33.4772L34 47.6336L43.1124 33.4772C43.4133 32.5476 43.5759 32.693 43.5759 30.5259C43.5759 25.2373 39.2886 20.9501 34 20.9501Z" fill="white"/>
      <path fill-rule="evenodd" clip-rule="evenodd" d="M34 22.4501C29.5398 22.4501 25.9241 26.0658 25.9241 30.5259C25.9241 31.2527 25.9626 31.6596 26.0185 31.9651C26.0679 32.235 26.1359 32.4605 26.2548 32.8298L34 44.8623L41.7507 32.8213C41.8021 32.6747 41.8489 32.5533 41.8846 32.4607C41.8939 32.4366 41.9025 32.4144 41.9102 32.3943C41.9587 32.2669 41.9773 32.2091 41.993 32.139C42.0317 31.9653 42.0759 31.6075 42.0759 30.5259C42.0759 26.0658 38.4602 22.4501 34 22.4501ZM22.9241 30.5259C22.9241 24.4089 27.883 19.4501 34 19.4501C40.117 19.4501 45.0759 24.4089 45.0759 30.5259C45.0759 31.6115 45.0387 32.2644 44.921 32.7922C44.8584 33.0728 44.7799 33.2884 44.7134 33.4629C44.7011 33.4951 44.6895 33.5254 44.6782 33.5545C44.6293 33.6817 44.5885 33.7879 44.5396 33.939L44.4794 34.1248L34 50.4049L23.5206 34.1248L23.4604 33.939C23.4519 33.9126 23.4433 33.8861 23.4347 33.8596C23.2989 33.4409 23.161 33.0156 23.0675 32.5051C22.967 31.9555 22.9241 31.3515 22.9241 30.5259Z" />
      <path d="M36.5531 30.0926C36.5531 31.5027 35.4101 32.6457 34 32.6457C32.5899 32.6457 31.4469 31.5027 31.4469 30.0926C31.4469 28.6825 32.5899 27.5395 34 27.5395C35.4101 27.5395 36.5531 28.6825 36.5531 30.0926Z" fill="white"/>
      <path fill-rule="evenodd" clip-rule="evenodd" d="M34 29.0395C33.4184 29.0395 32.9469 29.511 32.9469 30.0926C32.9469 30.6742 33.4184 31.1457 34 31.1457C34.5816 31.1457 35.0531 30.6742 35.0531 30.0926C35.0531 29.511 34.5816 29.0395 34 29.0395ZM29.9469 30.0926C29.9469 27.8541 31.7615 26.0395 34 26.0395C36.2385 26.0395 38.0531 27.8541 38.0531 30.0926C38.0531 32.3311 36.2385 34.1457 34 34.1457C31.7615 34.1457 29.9469 32.3311 29.9469 30.0926Z" />

    </symbol>

    <symbol id="List">
      <path d="M66.5 34.2918C66.5 51.659 52.1604 65.7379 34.4715 65.7379C16.7826 65.7379 2.44299 51.659 2.44299 34.2918C2.44299 16.9247 16.7826 2.84576 34.4715 2.84576C52.1604 2.84576 66.5 16.9247 66.5 34.2918Z" fill="white"/>
      <path d="M26.1347 27.5811H23.1347V24.5811H26.1347V27.5811Z" />
      <path d="M28.8083 27.5749H45.8083V24.5749H28.8083V27.5749Z"/>
      <path d="M26.1347 35.749H23.1347V32.749H26.1347V35.749Z" />
      <path d="M23.1347 43.9172H26.1347V40.9172H23.1347V43.9172Z" />
      <path d="M45.8083 35.7512H28.8083V32.7512H45.8083V35.7512Z" />
      <path d="M28.8083 43.9191L39.4448 43.9192L39.4448 40.9192L28.8083 40.9191L28.8083 43.9191Z" />
      <path fill-rule="evenodd" clip-rule="evenodd" d="M0.942993 34.2918C0.942993 16.0704 15.9803 1.34576 34.4715 1.34576C52.9627 1.34576 68 16.0704 68 34.2918C68 52.5133 52.9627 67.2379 34.4715 67.2379C15.9803 67.2379 0.942993 52.5133 0.942993 34.2918ZM34.4715 4.34576C17.585 4.34576 3.94299 17.7789 3.94299 34.2918C3.94299 50.8048 17.585 64.2379 34.4715 64.2379C51.358 64.2379 65 50.8048 65 34.2918C65 17.7789 51.358 4.34576 34.4715 4.34576Z" />

    </symbol>

    <symbol id="Person">
      <path d="M66.5 34.2918C66.5 51.659 52.1604 65.7379 34.4715 65.7379C16.7826 65.7379 2.44299 51.659 2.44299 34.2918C2.44299 16.9247 16.7826 2.84576 34.4715 2.84576C52.1604 2.84576 66.5 16.9247 66.5 34.2918Z" fill="white"/>
      <path fill-rule="evenodd" clip-rule="evenodd" d="M28.0413 28.4169C28.0413 24.8656 30.9202 21.9867 34.4715 21.9867C38.0228 21.9867 40.9017 24.8656 40.9017 28.4169C40.9017 30.8136 39.5903 32.9041 37.646 34.0101C42.4699 35.3887 46.001 39.8305 46.001 45.097V46.597H22.942V45.097C22.942 39.8305 26.4731 35.3887 31.297 34.0101C29.3526 32.9041 28.0413 30.8136 28.0413 28.4169ZM34.4715 24.9867C32.5771 24.9867 31.0413 26.5224 31.0413 28.4169C31.0413 30.3113 32.5771 31.847 34.4715 31.847C36.3659 31.847 37.9017 30.3113 37.9017 28.4169C37.9017 26.5224 36.3659 24.9867 34.4715 24.9867ZM42.8695 43.597C42.1607 39.6016 38.6704 36.5675 34.4715 36.5675C30.2726 36.5675 26.7823 39.6016 26.0735 43.597H42.8695Z" />
      <path fill-rule="evenodd" clip-rule="evenodd" d="M34.4715 1.34576C15.9803 1.34576 0.942993 16.0704 0.942993 34.2918C0.942993 52.5133 15.9803 67.2379 34.4715 67.2379C52.9627 67.2379 68 52.5133 68 34.2918C68 16.0704 52.9627 1.34576 34.4715 1.34576ZM3.94299 34.2918C3.94299 17.7789 17.585 4.34576 34.4715 4.34576C51.358 4.34576 65 17.7789 65 34.2918C65 50.8048 51.358 64.2379 34.4715 64.2379C17.585 64.2379 3.94299 50.8048 3.94299 34.2918Z" />

    </symbol>

    <symbol id="Pen">
      <path d="M66.0285 34.7176C66.0285 52.0848 51.6889 66.1637 34 66.1637C16.3111 66.1637 1.97149 52.0848 1.97149 34.7176C1.97149 17.3504 16.3111 3.27149 34 3.27149C51.6889 3.27149 66.0285 17.3504 66.0285 34.7176Z" fill="white"/>
      <path fill-rule="evenodd" clip-rule="evenodd" d="M21.8003 38.9025L21.805 38.9072C21.6169 39.1579 21.5054 39.4694 21.5054 39.8069L21.5054 47.2835H28.8443C29.3266 47.2835 29.7557 47.0559 30.0301 46.7023L46.1997 30.5326L38.1849 22.5178L22.0624 38.6403C21.9803 38.7068 21.9053 38.7818 21.8388 38.8639L21.8003 38.9025ZM38.1849 26.7605L26.0429 38.9025L29.8151 42.6746L41.9571 30.5326L38.1849 26.7605ZM24.5054 44.2835L24.5054 41.6076L27.1813 44.2835H24.5054Z" />
      <path fill-rule="evenodd" clip-rule="evenodd" d="M34 1.77149C15.5088 1.77149 0.471495 16.4961 0.471495 34.7176C0.471495 52.939 15.5088 67.6636 34 67.6636C52.4912 67.6636 67.5285 52.939 67.5285 34.7176C67.5285 16.4961 52.4912 1.77149 34 1.77149ZM3.47149 34.7176C3.47149 18.2046 17.1135 4.77149 34 4.77149C50.8865 4.77149 64.5285 18.2046 64.5285 34.7176C64.5285 51.2305 50.8865 64.6636 34 64.6636C17.1135 64.6636 3.47149 51.2305 3.47149 34.7176Z" />

    </symbol>

    <symbol id="PenD">
      <path d="M34.4715 0.771484C33.742 0.771484 33.0178 0.794396 32.2996 0.839551L32.4878 3.83364C33.1434 3.79242 33.8049 3.77148 34.4715 3.77148C35.1381 3.77148 35.7996 3.79242 36.4552 3.83364L36.6434 0.83955C35.9252 0.794396 35.201 0.771484 34.4715 0.771484Z" />
      <path d="M45.1568 2.48032C43.7919 2.02969 42.3879 1.66302 40.9513 1.38653L40.3843 4.33247C41.6937 4.58448 42.9729 4.91859 44.2162 5.32907L45.1568 2.48032Z" />
      <path d="M27.9917 1.38653C26.5551 1.66302 25.1511 2.02969 23.7862 2.48032L24.7267 5.32907C25.97 4.91859 27.2493 4.58448 28.5587 4.33247L27.9917 1.38653Z" />
      <path d="M52.9734 6.23769C51.7638 5.44983 50.4991 4.737 49.1862 4.10594L47.8866 6.80981C49.0824 7.3846 50.2343 8.03388 51.336 8.75147L52.9734 6.23769Z" />
      <path d="M19.7568 4.10595C18.4439 4.737 17.1792 5.44983 15.9696 6.23769L17.607 8.75148C18.7087 8.03388 19.8606 7.3846 21.0564 6.80981L19.7568 4.10595Z" />
      <path d="M59.5696 11.8715C58.5992 10.7958 57.5583 9.78301 56.4542 8.84018L54.5061 11.1216C55.5115 11.9801 56.459 12.9021 57.3421 13.881L59.5696 11.8715Z" />
      <path d="M12.4888 8.84018C11.3847 9.78302 10.3438 10.7958 9.37337 11.8715L11.6009 13.881C12.484 12.9021 13.4315 11.9801 14.4369 11.1216L12.4888 8.84018Z" />
      <path d="M64.4886 19.0237C63.8294 17.7259 63.0858 16.4771 62.2649 15.2843L59.7936 16.985C60.5398 18.0693 61.2153 19.2039 61.8138 20.3823L64.4886 19.0237Z" />
      <path d="M6.67806 15.2843C5.8572 16.4771 5.11358 17.7259 4.4544 19.0237L7.12917 20.3823C7.72769 19.2039 8.40322 18.0693 9.14942 16.985L6.67806 15.2843Z" />
      <path d="M67.3492 27.2269C67.0573 25.7914 66.6704 24.3895 66.1953 23.0279L63.3628 24.0161C63.7937 25.2513 64.1446 26.5228 64.4094 27.8248L67.3492 27.2269Z" />
      <path d="M2.74767 23.0279C2.2726 24.3895 1.88572 25.7914 1.59377 27.2269L4.53359 27.8248C4.79839 26.5228 5.14928 25.2513 5.58022 24.0161L2.74767 23.0279Z" />
      <path d="M68 33.7176C68 32.9863 67.9757 32.2603 67.9279 31.5405L64.9345 31.7393C64.9779 32.393 65 33.0527 65 33.7176C65 34.3825 64.9779 35.0421 64.9345 35.6958L67.9279 35.8947C67.9757 35.1748 68 34.4489 68 33.7176Z" />
      <path d="M1.01509 31.5405C0.967265 32.2603 0.942993 32.9863 0.942993 33.7176C0.942993 34.4489 0.967265 35.1748 1.01509 35.8947L4.00849 35.6958C3.96506 35.0421 3.94299 34.3825 3.94299 33.7176C3.94299 33.0527 3.96506 32.393 4.00849 31.7393L1.01509 31.5405Z" />
      <path d="M66.1953 44.4073C66.6704 43.0456 67.0573 41.6437 67.3492 40.2082L64.4094 39.6103C64.1446 40.9123 63.7937 42.1838 63.3628 43.419L66.1953 44.4073Z" />
      <path d="M1.59377 40.2082C1.88573 41.6437 2.2726 43.0456 2.74767 44.4073L5.58022 43.419C5.14928 42.1838 4.79839 40.9123 4.53359 39.6103L1.59377 40.2082Z" />
      <path d="M62.2649 52.1509C63.0858 50.958 63.8294 49.7092 64.4886 48.4114L61.8138 47.0529C61.2153 48.2313 60.5398 49.3658 59.7936 50.4502L62.2649 52.1509Z" />
      <path d="M4.4544 48.4114C5.11358 49.7092 5.8572 50.958 6.67807 52.1509L9.14943 50.4502C8.40322 49.3658 7.72769 48.2313 7.12917 47.0529L4.4544 48.4114Z" />
      <path d="M56.4542 58.5949C57.5583 57.6521 58.5992 56.6394 59.5696 55.5636L57.3421 53.5541C56.459 54.533 55.5115 55.455 54.5061 56.3135L56.4542 58.5949Z" />
      <path d="M9.37338 55.5636C10.3438 56.6394 11.3847 57.6521 12.4888 58.5949L14.4369 56.3135C13.4315 55.455 12.484 54.533 11.6009 53.5541L9.37338 55.5636Z" />
      <path d="M49.1862 63.3292C50.4991 62.6981 51.7638 61.9853 52.9734 61.1974L51.336 58.6836C50.2343 59.4012 49.0824 60.0505 47.8866 60.6253L49.1862 63.3292Z" />
      <path d="M15.9696 61.1974C17.1792 61.9853 18.4439 62.6981 19.7568 63.3292L21.0564 60.6253C19.8606 60.0505 18.7087 59.4012 17.607 58.6837L15.9696 61.1974Z" />
      <path d="M23.7862 64.9548C25.1511 65.4054 26.5551 65.7721 27.9917 66.0486L28.5587 63.1027C27.2493 62.8506 25.97 62.5165 24.7267 62.1061L23.7862 64.9548Z" />
      <path d="M40.9513 66.0486C42.3879 65.7721 43.7919 65.4054 45.1568 64.9548L44.2163 62.1061C42.973 62.5165 41.6937 62.8506 40.3843 63.1027L40.9513 66.0486Z" />
      <path d="M32.2996 66.5956C33.0178 66.6407 33.742 66.6636 34.4715 66.6636C35.201 66.6636 35.9252 66.6407 36.6434 66.5956L36.4552 63.6015C35.7996 63.6427 35.1381 63.6636 34.4715 63.6636C33.8049 63.6636 33.1434 63.6427 32.4878 63.6015L32.2996 66.5956Z" />
      <path fill-rule="evenodd" clip-rule="evenodd" d="M24.0108 38.7362H24.0097L24.0097 45.7686L31.0582 45.7686V45.7512L46.6659 30.1436L39.6346 23.1124L24.0108 38.7362ZM28.2523 38.7373L39.6346 27.355L42.4232 30.1436L31.0409 41.5259L28.2523 38.7373ZM28.0409 42.7686H27.0097V41.7373L28.0409 42.7686Z" />

    </symbol>

    <symbol id="!">
      <path d="M65.557 34.2708C65.557 51.638 51.2174 65.7169 33.5285 65.7169C15.8396 65.7169 1.5 51.638 1.5 34.2708C1.5 16.9036 15.8396 2.82471 33.5285 2.82471C51.2174 2.82471 65.557 16.9036 65.557 34.2708Z" fill="white"/>
      <path d="M35.506 21.2135V38.829H30.506V21.2135H35.506Z" />
      <path d="M35.506 43.829C35.506 45.2097 34.3867 46.329 33.006 46.329C31.6253 46.329 30.506 45.2097 30.506 43.829C30.506 42.4483 31.6253 41.329 33.006 41.329C34.3867 41.329 35.506 42.4483 35.506 43.829Z" />
      <path fill-rule="evenodd" clip-rule="evenodd" d="M33.5285 1.32471C15.0373 1.32471 0 16.0493 0 34.2708C0 52.4922 15.0373 67.2169 33.5285 67.2169C52.0197 67.2169 67.057 52.4922 67.057 34.2708C67.057 16.0493 52.0197 1.32471 33.5285 1.32471ZM3 34.2708C3 17.7579 16.642 4.32471 33.5285 4.32471C50.415 4.32471 64.057 17.7579 64.057 34.2708C64.057 50.7837 50.415 64.2169 33.5285 64.2169C16.642 64.2169 3 50.7837 3 34.2708Z" />

    </symbol>

    <symbol id="Twitter">
      <path d="M37.8127 31.5442L51.3637 15.6337H48.1526L36.3862 29.4485L26.9884 15.6337H16.1492L30.3605 36.5242L16.1492 53.2088H19.3606L31.7862 38.6198L41.7109 53.2088H52.5501L37.8127 31.5442ZM20.5177 18.0754H25.4501L48.1541 50.878H43.2217L20.5177 18.0754Z" />
    </symbol>

    <symbol id="Facebook">
      <path fill-rule="evenodd" clip-rule="evenodd" d="M37.2821 33.4976V54H28.425V33.4984H24V26.4332H28.425V22.1912C28.425 16.4274 30.9236 13 38.0225 13H43.9325V20.066H40.2383C37.4749 20.066 37.2921 21.0534 37.2921 22.8961L37.2821 26.4324H43.9744L43.1913 33.4976H37.2821Z"/>
    </symbol>


    <symbol id="N">
      <path d="M66.0285 34.7489C66.0285 52.1161 51.6889 66.195 34 66.195C16.3111 66.195 1.9715 52.1161 1.9715 34.7489C1.9715 17.3817 16.3111 3.30286 34 3.30286C51.6889 3.30286 66.0285 17.3817 66.0285 34.7489Z" fill="white"/>
      <path d="M34.5059 27.4702L46.6994 39.6636L43.8709 42.4921L34.0307 32.6518L24.6548 42.0276L21.8264 39.1992L34.0198 27.0058L34.4951 27.481L34.5059 27.4702Z" />
      <path fill-rule="evenodd" clip-rule="evenodd" d="M0.471497 34.7489C0.471497 16.5275 15.5088 1.80286 34 1.80286C52.4912 1.80286 67.5285 16.5275 67.5285 34.7489C67.5285 52.9704 52.4912 67.695 34 67.695C15.5088 67.695 0.471497 52.9704 0.471497 34.7489ZM34 4.80286C17.1135 4.80286 3.4715 18.236 3.4715 34.7489C3.4715 51.2619 17.1135 64.695 34 64.695C50.8865 64.695 64.5285 51.2619 64.5285 34.7489C64.5285 18.236 50.8865 4.80286 34 4.80286Z" />

    </symbol>

    <symbol id="NF">
      <path d="M34 1.80286C15.5088 1.80286 0.471497 16.5275 0.471497 34.7489C0.471497 52.9704 15.5088 67.695 34 67.695C52.4912 67.695 67.5285 52.9704 67.5285 34.7489C67.5285 16.5275 52.4912 1.80286 34 1.80286Z" />
      <path d="M34.4951 27.481L34.5059 27.4702L46.6994 39.6636L43.8709 42.4921L34.0307 32.6518L24.6548 42.0276L21.8264 39.1992L34.0198 27.0058L34.4951 27.481Z" fill="white"/>

    </symbol>

    <symbol id="S">
      <path d="M1.9715 34.7489C1.9715 17.3817 16.3111 3.30279 34 3.30279C51.6889 3.30279 66.0285 17.3817 66.0285 34.7489C66.0285 52.1161 51.6889 66.1949 34 66.1949C16.3111 66.1949 1.9715 52.1161 1.9715 34.7489Z" fill="white"/>
      <path d="M33.4941 42.0276L21.3006 29.8342L24.1291 27.0057L33.9693 36.846L43.3452 27.4702L46.1736 30.2986L33.9802 42.492L33.5049 42.0168L33.4941 42.0276Z" />
      <path fill-rule="evenodd" clip-rule="evenodd" d="M67.5285 34.7489C67.5285 52.9703 52.4912 67.6949 34 67.6949C15.5088 67.6949 0.471497 52.9703 0.471497 34.7489C0.471497 16.5274 15.5088 1.8028 34 1.8028C52.4912 1.8028 67.5285 16.5274 67.5285 34.7489ZM34 64.6949C50.8865 64.6949 64.5285 51.2618 64.5285 34.7489C64.5285 18.2359 50.8865 4.80279 34 4.80279C17.1135 4.80279 3.4715 18.2359 3.4715 34.7489C3.4715 51.2618 17.1135 64.6949 34 64.6949Z" />

    </symbol>

    <symbol id="SF">
      <path d="M34 67.6949C52.4912 67.6949 67.5285 52.9703 67.5285 34.7489C67.5285 16.5274 52.4912 1.8028 34 1.8028C15.5088 1.8028 0.471497 16.5274 0.471497 34.7489C0.471497 52.9703 15.5088 67.6949 34 67.6949Z" />
      <path d="M33.5049 42.0168L33.4941 42.0276L21.3006 29.8342L24.1291 27.0057L33.9693 36.846L43.3452 27.4702L46.1736 30.2986L33.9802 42.492L33.5049 42.0168Z" fill="white"/>

    </symbol>

    <symbol id="X">
      <path d="M66.0285 34.7489C66.0285 52.1161 51.6889 66.195 34 66.195C16.3111 66.195 1.9715 52.1161 1.9715 34.7489C1.9715 17.3817 16.3111 3.30286 34 3.30286C51.6889 3.30286 66.0285 17.3817 66.0285 34.7489Z" fill="white"/>
      <path d="M31.1715 34.7489L25.5147 29.0921L28.3431 26.2637L34 31.9205L39.6568 26.2636L42.4853 29.0921L36.8284 34.7489L42.4853 40.4058L39.6568 43.2342L34 37.5774L28.3431 43.2342L25.5147 40.4058L31.1715 34.7489Z" />
      <path fill-rule="evenodd" clip-rule="evenodd" d="M0.471497 34.7489C0.471497 16.5275 15.5088 1.80286 34 1.80286C52.4912 1.80286 67.5285 16.5275 67.5285 34.7489C67.5285 52.9704 52.4912 67.695 34 67.695C15.5088 67.695 0.471497 52.9704 0.471497 34.7489ZM34 4.80286C17.1135 4.80286 3.4715 18.236 3.4715 34.7489C3.4715 51.2619 17.1135 64.695 34 64.695C50.8865 64.695 64.5285 51.2619 64.5285 34.7489C64.5285 18.236 50.8865 4.80286 34 4.80286Z" />

    </symbol>

    <symbol id="XF">
      <path d="M34 1.80286C15.5088 1.80286 0.471497 16.5275 0.471497 34.7489C0.471497 52.9704 15.5088 67.695 34 67.695C52.4912 67.695 67.5285 52.9704 67.5285 34.7489C67.5285 16.5275 52.4912 1.80286 34 1.80286Z" />
      <path d="M36.8284 34.7489L42.4853 29.0921L39.6568 26.2636L34 31.9205L28.3431 26.2637L25.5147 29.0921L31.1715 34.7489L25.5147 40.4058L28.3431 43.2342L34 37.5774L39.6568 43.2342L42.4853 40.4058L36.8284 34.7489Z" fill="white"/>

    </symbol>

    <symbol id="PenF">
      <path d="M34 1.79175C15.5088 1.79175 0.471497 16.5164 0.471497 34.7378C0.471497 52.9593 15.5088 67.6839 34 67.6839C52.4912 67.6839 67.5285 52.9593 67.5285 34.7378C67.5285 16.5164 52.4912 1.79175 34 1.79175Z" />
      <path fill-rule="evenodd" clip-rule="evenodd" d="M21.805 38.9276L21.8003 38.9229L21.8383 38.8848C21.9051 38.8022 21.9805 38.7268 22.0631 38.66L38.1849 22.5382L46.1997 30.553L30.0297 46.7231C29.7553 47.0764 29.3263 47.3038 28.8443 47.3038H21.5054L21.5054 39.8271C21.5054 39.4897 21.6169 39.1782 21.805 38.9276ZM26.0429 38.9229L38.1849 26.7808L41.9571 30.553L29.8151 42.695L26.0429 38.9229ZM24.5054 41.628L24.5054 44.3038H27.1812L24.5054 41.628Z" fill="white"/>

    </symbol>

    <symbol id="!F">
      <path d="M34 1.79175C15.5088 1.79175 0.471497 16.5164 0.471497 34.7378C0.471497 52.9593 15.5088 67.6839 34 67.6839C52.4912 67.6839 67.5285 52.9593 67.5285 34.7378C67.5285 16.5164 52.4912 1.79175 34 1.79175Z"   />
      <path d="M35.9775 39.296V21.6805H30.9775V39.296H35.9775Z" fill="white"/>
      <path d="M33.4775 46.796C34.8582 46.796 35.9775 45.6767 35.9775 44.296C35.9775 42.9153 34.8582 41.796 33.4775 41.796C32.0968 41.796 30.9775 42.9153 30.9775 44.296C30.9775 45.6767 32.0968 46.796 33.4775 46.796Z" fill="white"/>

    </symbol>




    <symbol id="IG">
      <path d="M45.7456 19.6175C44.2881 19.6175 43.1056 20.7986 43.1056 22.2566C43.1056 23.7141 44.2881 24.8966 45.7456 24.8966C47.2031 24.8966 48.3856 23.7141 48.3856 22.2566C48.3856 20.7991 47.2031 19.6175 45.7456 19.6175Z" />
      <path fill-rule="evenodd" clip-rule="evenodd" d="M22.704 34C22.704 27.7609 27.7625 22.7023 34.0016 22.7021C40.241 22.7021 45.2983 27.7607 45.2983 34C45.2983 40.2393 40.2414 45.2956 34.0021 45.2956C27.7627 45.2956 22.704 40.2393 22.704 34ZM34.0021 26.6667C38.0519 26.6667 41.3355 29.9497 41.3355 34C41.3355 38.0498 38.0519 41.3333 34.0021 41.3333C29.9517 41.3333 26.6687 38.0498 26.6687 34C26.6687 29.9497 29.9517 26.6667 34.0021 26.6667Z" />
      <path fill-rule="evenodd" clip-rule="evenodd" d="M24.9306 12.1329C27.2773 12.0261 28.0272 12 34.0021 12H33.9952C39.9719 12 40.719 12.0261 43.0657 12.1329C45.4078 12.2402 47.0074 12.611 48.4099 13.155C49.8583 13.7165 51.082 14.4681 52.3058 15.6919C53.5296 16.9147 54.2812 18.1421 54.845 19.5891C55.3858 20.9879 55.7571 22.5866 55.8671 24.9287C55.9725 27.2753 56 28.0252 56 34C56 39.9748 55.9725 40.7228 55.8671 43.0695C55.7571 45.4107 55.3858 47.0098 54.845 48.4091C54.2812 49.8556 53.5296 51.083 52.3058 52.3058C51.0834 53.5296 49.8578 54.2831 48.4113 54.845C47.0115 55.389 45.411 55.7598 43.0689 55.8671C40.7222 55.9739 39.9747 56 33.9993 56C28.0249 56 27.2755 55.9739 24.9288 55.8671C22.5872 55.7598 20.988 55.389 19.5882 54.845C18.1422 54.2831 16.9148 53.5296 15.6924 52.3058C14.4691 51.083 13.7174 49.8556 13.155 48.4086C12.6114 47.0098 12.2406 45.4111 12.1329 43.069C12.0266 40.7224 12 39.9748 12 34C12 28.0252 12.0275 27.2749 12.1325 24.9282C12.2379 22.587 12.6091 20.9879 13.1546 19.5886C13.7183 18.1421 14.47 16.9147 15.6937 15.6919C16.9166 14.4686 18.144 13.7169 19.591 13.155C20.9898 12.611 22.5885 12.2402 24.9306 12.1329ZM33.2656 15.9644C32.822 15.9642 32.4108 15.964 32.0285 15.9646V15.9591C27.9282 15.9637 27.1417 15.9912 25.1121 16.0828C22.9671 16.1814 21.8025 16.5389 21.027 16.8414C20.0003 17.241 19.267 17.7177 18.4969 18.4877C17.7269 19.2577 17.2493 19.991 16.8506 21.0177C16.5495 21.7932 16.191 22.9574 16.093 25.1024C15.9875 27.4215 15.9665 28.1145 15.9665 33.9895C15.9665 39.8644 15.9875 40.561 16.093 42.8802C16.1906 45.0252 16.5495 46.1894 16.8506 46.964C17.2503 47.9911 17.7269 48.7226 18.4969 49.4926C19.267 50.2626 20.0003 50.7393 21.027 51.138C21.8029 51.4391 22.9671 51.7975 25.1121 51.8965C27.4313 52.002 28.1275 52.0249 34.0021 52.0249C39.8761 52.0249 40.5728 52.002 42.892 51.8965C45.037 51.7985 46.2021 51.441 46.9767 51.1385C48.0038 50.7397 48.7349 50.263 49.5049 49.493C50.2749 48.7235 50.7525 47.9925 51.1512 46.9658C51.4524 46.1912 51.8108 45.027 51.9089 42.882C52.0143 40.5629 52.0372 39.8662 52.0372 33.995C52.0372 28.1237 52.0143 27.427 51.9089 25.1079C51.8112 22.9629 51.4524 21.7987 51.1512 21.0241C50.7516 19.9975 50.2749 19.2641 49.5049 18.4941C48.7353 17.7241 48.0034 17.2475 46.9767 16.8487C46.2012 16.5476 45.037 16.1892 42.892 16.0911C40.5723 15.9857 39.8761 15.9646 34.0021 15.9646L33.2656 15.9644Z" />
    </symbol>

    <symbol id="GF">
      <path d="M67.415 34.7377C67.415 53.1923 52.4546 68.1527 34 68.1527C15.5454 68.1527 0.58503 53.1923 0.58503 34.7377C0.58503 16.2831 15.5454 1.32275 34 1.32275C52.4546 1.32275 67.415 16.2831 67.415 34.7377Z" fill="#DD4B39"/>
      <path fill-rule="evenodd" clip-rule="evenodd" d="M36.8473 33.652H29.6364V36.2577H33.9673C33.7927 37.376 32.6582 39.5366 29.6364 39.5366C27.0291 39.5366 24.9018 37.3868 24.9018 34.7377C24.9018 32.0886 27.0291 29.9388 29.6364 29.9388C31.12 29.9388 32.1127 30.5686 32.68 31.1114L34.7527 29.1246C33.4218 27.8868 31.6982 27.1377 29.6364 27.1377C25.4145 27.1377 22 30.536 22 34.7377C22 38.9394 25.4145 42.3377 29.6364 42.3377C34.0436 42.3377 36.9673 39.2543 36.9673 34.9114C36.9673 34.412 36.9127 34.032 36.8473 33.652ZM43.8182 35.8234H46V33.652H43.8182V31.4806H41.6364V33.652H39.4545V35.8234H41.6364V37.9948H43.8182V35.8234Z" fill="white"/>

    </symbol>

    <symbol id="G">
      <path d="M67.415 34.7377C67.415 53.1923 52.4546 68.1527 34 68.1527C15.5454 68.1527 0.58503 53.1923 0.58503 34.7377C0.58503 16.2831 15.5454 1.32275 34 1.32275C52.4546 1.32275 67.415 16.2831 67.415 34.7377Z" fill="white"/>
      <path d="M29.6364 33.652H36.8473C36.9127 34.032 36.9673 34.412 36.9673 34.9114C36.9673 39.2543 34.0436 42.3377 29.6364 42.3377C25.4145 42.3377 22 38.9394 22 34.7377C22 30.536 25.4145 27.1377 29.6364 27.1377C31.6982 27.1377 33.4218 27.8868 34.7527 29.1246L32.68 31.1114C32.1127 30.5686 31.12 29.9388 29.6364 29.9388C27.0291 29.9388 24.9018 32.0886 24.9018 34.7377C24.9018 37.3868 27.0291 39.5366 29.6364 39.5366C32.6582 39.5366 33.7927 37.376 33.9673 36.2577H29.6364V33.652Z" fill="#DD4B39"/>
      <path d="M46 35.8234H43.8182V37.9948H41.6364V35.8234H39.4545V33.652H41.6364V31.4806H43.8182V33.652H46V35.8234Z" fill="#DD4B39"/>
      <path fill-rule="evenodd" clip-rule="evenodd" d="M67.415 34.7377C67.415 53.1923 52.4546 68.1527 34 68.1527C15.5454 68.1527 0.58503 53.1923 0.58503 34.7377C0.58503 16.2831 15.5454 1.32275 34 1.32275C52.4546 1.32275 67.415 16.2831 67.415 34.7377ZM64.415 34.7377C64.415 51.5354 50.7977 65.1527 34 65.1527C17.2023 65.1527 3.58503 51.5354 3.58503 34.7377C3.58503 17.94 17.2023 4.32275 34 4.32275C50.7977 4.32275 64.415 17.94 64.415 34.7377Z" fill="#DD4B39"/>

    </symbol>

    <symbol id="MailF">
      <path d="M34 1.87061C15.5088 1.87061 0.471497 16.5952 0.471497 34.8167C0.471497 53.0381 15.5088 67.7628 34 67.7628C52.4912 67.7628 67.5285 53.0381 67.5285 34.8167C67.5285 16.5952 52.4912 1.87061 34 1.87061Z" />
      <path fill-rule="evenodd" clip-rule="evenodd" d="M44.4308 22.1438H23.5693L23.3859 21.9675L23.2165 22.1438H19.8071V45.9828H48.1929V22.1438H44.7834L44.6141 21.9676L44.4308 22.1438ZM34 36.3293L22.8071 25.5721V42.9828H45.1929V25.5722L34 36.3293ZM34 32.1684L26.6908 25.1438H41.3092L34 32.1684Z" fill="white"/>

    </symbol>

    <symbol id="Mail">
      <path d="M66.0285 34.8167C66.0285 52.1839 51.6889 66.2628 34 66.2628C16.3111 66.2628 1.9715 52.1839 1.9715 34.8167C1.9715 17.4495 16.3111 3.37061 34 3.37061C51.6889 3.37061 66.0285 17.4495 66.0285 34.8167Z" fill="white"/>
      <path fill-rule="evenodd" clip-rule="evenodd" d="M44.4308 22.1438H23.5693L23.3859 21.9675L23.2165 22.1438H19.8071V45.9828H48.1929V22.1438H44.7834L44.6141 21.9676L44.4308 22.1438ZM41.3092 25.1438H26.6908L34 32.1684L41.3092 25.1438ZM34 36.3293L22.8071 25.5721V42.9828H45.1929V25.5722L34 36.3293Z"  />
      <path fill-rule="evenodd" clip-rule="evenodd" d="M34 1.87061C15.5088 1.87061 0.471497 16.5952 0.471497 34.8167C0.471497 53.0381 15.5088 67.7628 34 67.7628C52.4912 67.7628 67.5285 53.0381 67.5285 34.8167C67.5285 16.5952 52.4912 1.87061 34 1.87061ZM3.4715 34.8167C3.4715 18.3038 17.1135 4.87061 34 4.87061C50.8865 4.87061 64.5285 18.3038 64.5285 34.8167C64.5285 51.3296 50.8865 64.7628 34 64.7628C17.1135 64.7628 3.4715 51.3296 3.4715 34.8167Z"  />

    </symbol>

    <symbol id="Pinterest">
      <path d="M25.3998 57.8366C25.3998 57.8366 23.9031 58.3436 23.3797 57.0666C22.8563 55.7897 22.8809 51.0063 23.4794 48.3984C24.0281 46.0389 27.0208 33.3967 27.0208 33.3967C27.0208 33.3967 26.123 31.5836 26.123 28.926C26.123 24.7285 28.5671 21.599 31.6097 21.599C34.2034 21.599 35.4504 23.5363 35.4504 25.8462C35.4504 28.4293 33.8044 32.3039 32.9315 35.9053C32.2082 38.9106 34.4528 41.3695 37.4206 41.3695C42.8075 41.3695 46.9475 35.7066 46.9475 27.56C46.9475 20.3323 41.7351 15.2903 34.2782 15.2903C25.6492 15.2903 20.5864 21.7232 20.5864 28.3796C20.5864 30.9627 21.584 33.7444 22.831 35.2595C23.0804 35.5576 23.1053 35.8308 23.0305 36.1288C22.8061 37.0726 22.2823 39.1341 22.1826 39.5564C22.0579 40.1028 21.7337 40.227 21.1601 39.9538C17.3693 38.1903 15 32.7013 15 28.2554C15 18.7427 21.9332 10 35.0264 10C45.5259 10 53.7061 17.4512 53.7061 27.4358C53.7061 37.8426 47.1221 46.2127 37.9942 46.2127C34.9267 46.2127 32.0337 44.6232 31.061 42.7355C31.061 42.7355 29.5397 48.4978 29.1656 49.9135C28.4923 52.5462 27.4031 56.3436 25.3998 57.8366Z"/>

    </symbol>

    <symbol id="Calendar">
      <path d="M66.0284 34.8728C66.0284 52.24 51.6888 66.3189 33.9999 66.3189C16.3111 66.3189 1.97144 52.24 1.97144 34.8728C1.97144 17.5056 16.3111 3.42676 33.9999 3.42676C51.6888 3.42676 66.0284 17.5056 66.0284 34.8728Z" fill="white"/>
      <path fill-rule="evenodd" clip-rule="evenodd" d="M30.3389 24.6176V21.6567H27.3389V24.6176L21.8227 24.618L21.8227 48.0888H24.8227V48.0873H46.1772L46.1771 24.6176H40.8268V21.6567H37.8268V24.6176H30.3389ZM24.8227 31.1785H43.1771V45.0873H24.8227V31.1785Z" />
      <path fill-rule="evenodd" clip-rule="evenodd" d="M33.9999 1.92676C15.5087 1.92676 0.471436 16.6514 0.471436 34.8728C0.471436 53.0943 15.5087 67.8189 33.9999 67.8189C52.4911 67.8189 67.5284 53.0943 67.5284 34.8728C67.5284 16.6514 52.4911 1.92676 33.9999 1.92676ZM3.47144 34.8728C3.47144 18.3599 17.1134 4.92676 33.9999 4.92676C50.8864 4.92676 64.5284 18.3599 64.5284 34.8728C64.5284 51.3858 50.8864 64.8189 33.9999 64.8189C17.1134 64.8189 3.47144 51.3858 3.47144 34.8728Z" />

    </symbol>
      


    <symbol id="CalendarF">
      <path d="M34 1.52612C15.5088 1.52612 0.471497 16.2507 0.471497 34.4722C0.471497 52.6936 15.5088 67.4183 34 67.4183C52.4912 67.4183 67.5285 52.6936 67.5285 34.4722C67.5285 16.2507 52.4912 1.52612 34 1.52612Z" />
      <path fill-rule="evenodd" clip-rule="evenodd" d="M30.339 21.2561V24.217H37.8269V21.2561H40.8269V24.217H46.1771L46.1773 47.6867H24.8227V47.6882H21.8227L21.8227 24.2174L27.3389 24.217V21.2561H30.339ZM43.1772 30.7778H24.8227V44.6867H43.1772V30.7778Z" fill="white"/>
    
    </symbol>

    <symbol id="Upgrade">
      <path d="M1.9715 34C1.9715 16.6328 16.3111 2.55389 34 2.55389C51.6889 2.55389 66.0285 16.6328 66.0285 34C66.0285 51.3672 51.6889 65.446 34 65.446C16.3111 65.446 1.9715 51.3672 1.9715 34Z" fill="white"/>
      <path fill-rule="evenodd" clip-rule="evenodd" d="M67.5285 34C67.5285 52.2214 52.4912 66.946 34 66.946C15.5088 66.946 0.471497 52.2214 0.471497 34C0.471497 15.7785 15.5088 1.05389 34 1.05389C52.4912 1.05389 67.5285 15.7785 67.5285 34ZM34 63.946C50.8865 63.946 64.5285 50.5129 64.5285 34C64.5285 17.487 50.8865 4.05389 34 4.05389C17.1135 4.05389 3.4715 17.487 3.4715 34C3.4715 50.5129 17.1135 63.946 34 63.946Z"/>
      <path d="M33.5945 17L37.7481 29.7832H51.1891L40.3151 37.6836L44.4686 50.4668L33.5945 42.5664L22.7205 50.4668L26.874 37.6836L16 29.7832H29.441L33.5945 17Z" />
    </symbol>

    <symbol id="UpgradeF">
      <path fill-rule="evenodd" clip-rule="evenodd" d="M34 66.946C52.4912 66.946 67.5285 52.2214 67.5285 34C67.5285 15.7785 52.4912 1.05389 34 1.05389C15.5088 1.05389 0.471497 15.7785 0.471497 34C0.471497 52.2214 15.5088 66.946 34 66.946ZM37.748 29.7832L33.5945 17L29.441 29.7832H16L26.874 37.6836L22.7205 50.4668L33.5945 42.5664L44.4686 50.4668L40.3151 37.6836L51.1891 29.7832H37.748Z"/>
    </symbol>

    <symbol id="Linkedin">
      <path d="M20.7983 16.0253C18.1545 16.0253 16.0019 18.1774 16 20.8233C16 23.4692 18.1525 25.6217 20.7983 25.6217C23.443 25.6217 25.5945 23.4692 25.5945 20.8233C25.5945 18.1777 23.4429 16.0253 20.7983 16.0253Z"/>
      <path d="M24.3995 27.5496H17.1966C16.854 27.5496 16.576 27.8274 16.576 28.1703V51.3542C16.576 51.6969 16.854 51.9747 17.1966 51.9747H24.3993C24.7421 51.9747 25.02 51.6968 25.02 51.3542V28.1703C25.0201 27.8272 24.7422 27.5496 24.3995 27.5496Z"/>
      <path d="M42.8133 27.2766C40.1773 27.2766 37.861 28.0793 36.4474 29.3881V28.1703C36.4474 27.8274 36.1695 27.5496 35.8268 27.5496H28.9174C28.5747 27.5496 28.2968 27.8274 28.2968 28.1703V51.3542C28.2968 51.6969 28.5747 51.9747 28.9174 51.9747H36.1134C36.4562 51.9747 36.7341 51.6968 36.7341 51.3542V39.8839C36.7341 36.5929 37.3394 34.5531 40.3604 34.5531C43.3367 34.5567 43.5595 36.744 43.5595 40.0806V51.3542C43.5595 51.6969 43.8374 51.9747 44.1803 51.9747H51.3796C51.7222 51.9747 52.0001 51.6968 52.0001 51.3542V38.6368C52 33.3477 50.9558 27.2766 42.8133 27.2766Z"/>
    </symbol>


  </defs>
  <use xlink:href="#Eye" x="0" y="0"   fill="#1E29C1" />
  <use xlink:href="#EyeF" x="0" y="68"  fill="#1E29C1" />
  <use xlink:href="#Tick"   x="0" y="136"  fill="#252525" />
  <use xlink:href="#Tick"   x="0" y="204"  fill="#959595" />
  <use xlink:href="#Cross"   x="0" y="272"  fill="#1E29C1" />
  <use xlink:href="#CrossF"   x="0" y="340"  fill="#1E29C1" />
  <use xlink:href="#Speech"   x="0" y="408"  fill="#1E29C1" />
  <use xlink:href="#SpeechF"   x="0" y="476"  fill="#1E29C1" />
  <use xlink:href="#Speech"   x="0" y="544"  fill="#959595" />
  <use xlink:href="#NE"   x="0" y="612"  fill="#1E29C1" />
  <use xlink:href="#NEF"   x="0" y="680"  fill="#1E29C1" />
  <use xlink:href="#E"   x="0" y="748"  fill="#1E29C1" />
  <use xlink:href="#EF"   x="0" y="816"  fill="#1E29C1" />
  <use xlink:href="#Pin"   x="0" y="884"  fill="#1E29C1" />
  <use xlink:href="#List"   x="0" y="952"  fill="#1E29C1" />
  <use xlink:href="#Person"   x="0" y="1020"  fill="#1E29C1" />
  <use xlink:href="#Person"   x="0" y="1088"  fill="#959595" />
  <use xlink:href="#Pen"   x="0" y="1156"  fill="#959595" />
  <use xlink:href="#PenD"   x="0" y="1224"  fill="#959595" />
  <use xlink:href="#PenD"   x="0" y="1294"  fill="#1E29C1" />
  <use xlink:href="#!"   x="0" y="1360"  fill="#959595" />
  <use xlink:href="#Twitter"   x="0" y="1428"  fill="#1E29C1" />
  <use xlink:href="#Twitter"   x="0" y="1496"  fill="#252525" />
  <use xlink:href="#Facebook"   x="0" y="1564"  fill="#1E29C1" />
  <use xlink:href="#Facebook"   x="0" y="1632"  fill="#252525" />
  <use xlink:href="#N"   x="0" y="1700"  fill="#959595" />
  <use xlink:href="#N"   x="0" y="1768"  fill="#252525" />
  <use xlink:href="#NF"   x="0" y="1836"  fill="#252525" />
  <use xlink:href="#S"   x="0" y="1904"  fill="#959595" />
  <use xlink:href="#S"   x="0" y="1972"  fill="#252525" />
  <use xlink:href="#SF"   x="0" y="2040"  fill="#252525" />
  <use xlink:href="#X"   x="0" y="2108"  fill="#959595" />
  <use xlink:href="#XF"   x="0" y="2176"  fill="#959595" />
  <use xlink:href="#Eye"   x="0" y="2244"  fill="#252525" />
  <use xlink:href="#Speech"   x="0" y="2312"  fill="#252525" />
  <use xlink:href="#Pen"   x="0" y="2380"  fill="#1E29C1" />
  <use xlink:href="#PenF"   x="0" y="2448"  fill="#1E29C1" />
  <use xlink:href="#!"   x="0" y="2516"  fill="#1E29C1" />
  <use xlink:href="#!F"   x="0" y="2584"  fill="#1E29C1" />
  <use xlink:href="#Eye"   x="0" y="2652"  fill="#ACACAC" />
  <use xlink:href="#IG"   x="0" y="2720"  fill="#252525" />
  <use xlink:href="#IG"   x="0" y="2788"  fill="#1E29C1" />
  <use xlink:href="#Pinterest"   x="0" y="2856"  fill="#252525" />
  <use xlink:href="#Pinterest"   x="0" y="2924"  fill="#1E29C1" />
  <use xlink:href="#MailF"   x="0" y="2992"  fill="#1E29C1" />
  <use xlink:href="#Mail"   x="0" y="3060"  fill="#1E29C1" />
  <use xlink:href="#Calendar"   x="0" y="3128"  fill="#ACACAC" />
  <use xlink:href="#CalendarF"   x="0" y="3196"  fill="#1E29C1" />
  <use xlink:href="#Calendar"   x="0" y="3264"  fill="#1E29C1" />
  <use xlink:href="#UpgradeF"   x="0" y="3332"  fill="#1E29C1" />
  <use xlink:href="#Upgrade"   x="0" y="3400"  fill="#1E29C1" />
  <use xlink:href="#Linkedin"   x="0" y="3468"  fill="#252525" />
  <use xlink:href="#Linkedin"   x="0" y="3536"  fill="#1E29C1" />
</svg>