<svg 
    xmlns="http://www.w3.org/2000/svg"
    xmlns:xlink="http://www.w3.org/1999/xlink"
    width="80" 
    height="7280">
<defs>
    <symbol id="Cross">
        <path d="M38 42V50H42V42H50V38H42V30H38V38H30V42H38Z" />
    </symbol>

    <symbol id="Eye">
        <path fill-rule="evenodd" clip-rule="evenodd" d="M37.662 33.6417C32.927 34.2481 29.0374 36.6939 27.1679 39.0135L26.2266 40.1814L23.8908 38.2988L24.8321 37.1309C27.2199 34.1682 31.8303 31.364 37.2809 30.666C42.8099 29.9579 49.1996 31.4163 55.0357 36.9872L56.1207 38.0229L54.0493 40.193L52.9643 39.1572C47.8004 34.2281 42.3188 33.0453 37.662 33.6417Z" />
        <path fill-rule="evenodd" clip-rule="evenodd" d="M40 45.0722C41.1046 45.0722 42 44.1768 42 43.0722C42 41.9676 41.1046 41.0722 40 41.0722C38.8954 41.0722 38 41.9676 38 43.0722C38 44.1768 38.8954 45.0722 40 45.0722ZM40 48.0722C42.7614 48.0722 45 45.8336 45 43.0722C45 40.3108 42.7614 38.0722 40 38.0722C37.2386 38.0722 35 40.3108 35 43.0722C35 45.8336 37.2386 48.0722 40 48.0722Z" />
    </symbol>
    
    <symbol id="Speach">
        <path fill-rule="evenodd" clip-rule="evenodd" d="M29.9028 44.0332C28.4288 42.5028 27 40.3376 27 38C27 35.0653 28.6126 32.5307 30.9767 30.7833C33.3411 29.0357 36.5363 28 40 28C43.4637 28 46.6589 29.0357 49.0233 30.7833C51.3874 32.5307 53 35.0653 53 38C53 40.9347 51.3874 43.4693 49.0233 45.2167C46.6589 46.9643 43.4637 48 40 48C39.0124 48 37.7257 47.7705 36.7975 47.5886L29.3952 52.2992L29.501 49.4444L31 49.5C29.501 49.4444 29.501 49.4444 29.501 49.4444L29.5029 49.3953L29.5084 49.2602C29.5133 49.1434 29.5206 48.9752 29.5306 48.7676C29.5503 48.3526 29.5804 47.7781 29.6217 47.1404C29.6844 46.1718 29.7758 45.0083 29.9028 44.0332ZM30 38C30 36.2403 30.9617 34.5249 32.7599 33.1959C34.5576 31.8671 37.1125 31 40 31C42.8875 31 45.4424 31.8671 47.2401 33.1959C49.0383 34.5249 50 36.2403 50 38C50 39.7597 49.0383 41.4751 47.2401 42.8041C45.4424 44.1329 42.8875 45 40 45C39.1577 45 37.8502 44.7395 36.8355 44.5374L36.795 44.5293C36.4287 44.4558 36.0347 44.5181 35.6947 44.7345L32.6617 46.6646C32.7403 45.5966 32.8457 44.4985 32.9767 43.7632C33.0711 43.2338 32.8753 42.7199 32.5032 42.3846C31.0357 41.0174 30 39.353 30 38Z" />
    </symbol>

    <symbol id="NE">
        <path d="M43.6057 34H31.2729V31H49.2729V49H46.2729V35.5754L32.8484 49L30.7271 46.8787L43.6057 34Z" />
    </symbol>

    <symbol id="Tick">
        <path d="M50.6792 34.3998L47.4455 31.2704L36.9397 42.1264L32.7165 37.2775L29.3232 40.233L36.7652 48.7776L50.6792 34.3998Z" />
    </symbol>

    <symbol id="N">
        <path d="M49.6153 41.3526L40.5801 30.289L30.3847 41.2127L32.5778 43.2596L38.8538 36.5354V49.711H41.8538V36.5914L47.2917 43.2502L49.6153 41.3526Z" />
    </symbol>

    <symbol id="S">
        <path d="M30.3847 38.6474L39.4199 49.711L49.6153 38.7873L47.4222 36.7404L41.1462 43.4646V30.289H38.1462V43.4086L32.7083 36.7498L30.3847 38.6474Z" />
    </symbol>

    <symbol id="Flag">
        <path fill-rule="evenodd" clip-rule="evenodd" d="M35.5352 31.1646L35.5633 31.1784H35.5691V31.1812L47.4309 37.0188L37.7559 43.6008L37.7574 43.6029L35.5691 45.1073V48.8354H32.5691V31.1784H35.5284L35.5352 31.1646ZM35.5691 41.46V34.5248L41.4843 37.4359L35.5691 41.46Z" />
    </symbol>

    <symbol id="X">
        <path d="M40 42.8284L45.6569 48.4853L48.4853 45.6569L42.8284 40L48.4853 34.3431L45.6569 31.5147L40 37.1716L34.3431 31.5147L31.5147 34.3431L37.1716 40L31.5147 45.6569L34.3431 48.4853L40 42.8284Z" />
    </symbol>


    <symbol id="Location">
        <path fill-rule="evenodd" clip-rule="evenodd" d="M40 30.3145C37.5971 30.3145 35.6492 32.2624 35.6492 34.6653C35.6492 37.0682 37.5971 39.0162 40 39.0162C42.403 39.0162 44.3509 37.0682 44.3509 34.6653C44.3509 32.2624 42.403 30.3145 40 30.3145ZM38.6492 34.6653C38.6492 33.9193 39.254 33.3145 40 33.3145C40.7461 33.3145 41.3509 33.9193 41.3509 34.6653C41.3509 35.4114 40.7461 36.0162 40 36.0162C39.254 36.0162 38.6492 35.4114 38.6492 34.6653Z" />
        <path fill-rule="evenodd" clip-rule="evenodd" d="M40 22.9567C33.2663 22.9567 27.8075 28.4154 27.8075 35.1492C27.8075 37.2111 28.5796 39.2148 29.2618 40.3398L29.2722 40.357L40.013 57.0433L50.5031 40.4089L50.5246 40.3697C50.6456 40.1499 50.7567 39.9639 50.8774 39.7617C50.9348 39.6657 50.9947 39.5655 51.0585 39.4568C51.2443 39.1402 51.4441 38.7828 51.6194 38.3694C51.9858 37.5055 52.1925 36.5241 52.1925 35.1492C52.1925 28.4154 46.7337 22.9567 40 22.9567ZM30.8075 35.1492C30.8075 30.0723 34.9231 25.9567 40 25.9567C45.0769 25.9567 49.1925 30.0723 49.1925 35.1492C49.1925 36.194 49.0408 36.7659 48.8576 37.198C48.758 37.4327 48.6351 37.659 48.4713 37.938C48.4294 38.0094 48.3823 38.0884 48.3317 38.1732C48.2063 38.3832 48.0592 38.6295 47.9185 38.8831L39.987 51.4603L31.8174 38.7684C31.3594 38.0055 30.8075 36.5444 30.8075 35.1492Z" />
    </symbol>
  

    <symbol id="Date">
        <path fill-rule="evenodd" clip-rule="evenodd" d="M36.3389 26.7839V29.7448H43.8269V26.7839H46.8269V29.7448H52.1771L52.1773 53.2145H30.8227V53.216H27.8227L27.8227 29.7452L33.3389 29.7448V26.7839H36.3389ZM49.1771 36.3056H30.8227L30.8227 50.2145H49.1771V36.3056Z" />
    </symbol>

    <symbol id="Copy">
    <path fill-rule="evenodd" clip-rule="evenodd" d="M55.1405 27.4072L33.5784 26.2772L33.2854 31.8674H24.8595V53.7228H47.4133V48.7333L54.0047 49.0787L55.1405 27.4072ZM47.4133 45.7292L51.1659 45.9258L51.9876 30.2461L36.4173 29.4301L36.2895 31.8674H47.4133V45.7292ZM27.8595 50.7228V34.8674H44.4133V50.7228H27.8595Z" />
    </symbol>

    <symbol id="List">
    <path d="M34.3368 33.3279H51.3368V30.3279H34.3368V33.3279Z" />
    <path d="M28.6632 33.334H31.6632V30.334H28.6632V33.334Z" />
    <path d="M31.6632 41.502H28.6632V38.502H31.6632V41.502Z" />
    <path d="M28.6632 49.6702H31.6632V46.6702H28.6632V49.6702Z" />
    <path d="M51.3368 41.5042H34.3368V38.5042H51.3368V41.5042Z" />
    <path d="M34.3368 49.6721L44.9733 49.6722L44.9733 46.6722L34.3368 46.6721L34.3368 49.6721Z" />
    </symbol>

    <symbol id="Person">
        <path fill-rule="evenodd" clip-rule="evenodd" d="M44.4238 40.0057C46.709 38.7264 48.2538 36.2821 48.2538 33.4769C48.2538 29.3475 44.9063 26 40.7769 26C36.6475 26 33.3 29.3475 33.3 33.4769C33.3 36.1952 34.7506 38.5747 36.9199 39.8835C32.9101 41.2378 29.6191 44.8124 27.9238 49.5C27.5226 50.6092 27.2108 51.7808 27 53H54C53.7892 51.7808 53.4774 50.6092 53.0762 49.5C51.4296 44.947 48.2776 41.4441 44.4238 40.0057ZM44.7538 33.4769C44.7538 35.6733 42.9733 37.4538 40.7769 37.4538C38.5805 37.4538 36.8 35.6733 36.8 33.4769C36.8 31.2805 38.5805 29.5 40.7769 29.5C42.9733 29.5 44.7538 31.2805 44.7538 33.4769ZM40.5 42.7923C43.8779 42.7923 47.3741 45.2203 49.3124 49.5H31.6876C33.6259 45.2203 37.1221 42.7923 40.5 42.7923Z"/>
    </symbol>

    <symbol id="Cube">
        <path fill-rule="evenodd" clip-rule="evenodd" d="M40.1995 26.424L52.3338 32.211V47.7888L40.1995 53.576L27.6662 46.7563V33.2436L40.1995 26.424ZM40.2893 29.7905L32.5223 34.0166L40.1688 37.5024L47.5955 33.2749L40.2893 29.7905ZM49.3338 35.7373L41.7444 40.0576V49.5155L49.3338 45.8958V35.7373ZM38.7444 49.3689V40.1501L30.6662 36.4674V44.9733L38.7444 49.3689Z" />
    </symbol>

    <symbol id="Twitter">
        <path d="M43.4492 37.5498L54.9897 24H52.2549L42.2344 35.7651L34.231 24H25L37.1027 41.7909L25 56H27.7349L38.3169 43.5756L46.769 56H56L43.4492 37.5498ZM28.7203 26.0795H32.9209L52.2562 54.0151H48.0556L28.7203 26.0795Z" />
    </symbol>

    <symbol id="Facebook">
        <path fill-rule="evenodd" clip-rule="evenodd" d="M42.6393 39.9981V56H35.5445V39.9988H32V34.4844H35.5445V31.1736C35.5445 26.675 37.546 24 43.2324 24H47.9665V29.515H45.0074C42.7938 29.515 42.6473 30.2856 42.6473 31.7238L42.6393 34.4838H48L47.3727 39.9981H42.6393Z" />
    </symbol>


    <symbol id="Zoom">
        <path d="M40.9908 37.7432L40.9908 32.6857H37.9524L37.9524 37.7432H32.8488V40.7816H37.9524V45.9162H40.9908V40.7816H46.0793V37.7432H40.9908Z" />
        <path fill-rule="evenodd" clip-rule="evenodd" d="M39.4641 19.8269C28.7088 19.8269 19.99 28.5457 19.99 39.3009C19.99 50.0561 28.7088 58.775 39.4641 58.775C44.027 58.775 48.2244 57.2051 51.5441 54.5764L57.1408 60.1732L60.01 57.304L54.4472 51.7413C57.2514 48.3676 58.9381 44.0307 58.9381 39.3009C58.9381 28.5457 50.2193 19.8269 39.4641 19.8269ZM24.0477 39.3009C24.0477 30.7867 30.9498 23.8845 39.4641 23.8845C47.9783 23.8845 54.8805 30.7867 54.8805 39.3009C54.8805 47.8152 47.9783 54.7173 39.4641 54.7173C30.9498 54.7173 24.0477 47.8152 24.0477 39.3009Z" />
       
    </symbol>

    <symbol id="Info">
        <path d="M43.5058 48.5348L43.7586 47.4491C43.6284 47.5134 43.4177 47.5898 43.1265 47.6783C42.8353 47.7587 42.5747 47.7989 42.3449 47.7989C41.8544 47.7989 41.5096 47.7145 41.3104 47.5456C41.1111 47.3767 41.0115 47.059 41.0115 46.5926C41.0115 46.4076 41.0422 46.1342 41.1035 45.7723C41.1648 45.4104 41.2337 45.0887 41.3104 44.8072L42.2529 41.2967C42.3449 40.975 42.4062 40.6211 42.4368 40.2351C42.4751 39.8491 42.4943 39.5797 42.4943 39.4269C42.4943 38.687 42.2452 38.0878 41.7472 37.6294C41.2567 37.1629 40.5556 36.9297 39.6437 36.9297C39.138 36.9297 38.6016 37.0262 38.0345 37.2192C37.4675 37.4042 36.8736 37.6294 36.2529 37.8948L36 38.9805C36.1839 38.9081 36.4023 38.8317 36.6552 38.7513C36.9157 38.6709 37.1686 38.6307 37.4138 38.6307C37.9119 38.6307 38.2491 38.7191 38.4253 38.8961C38.6016 39.073 38.6897 39.3867 38.6897 39.837C38.6897 40.0863 38.659 40.3638 38.5977 40.6694C38.5441 40.967 38.4751 41.2846 38.3908 41.6224L37.4483 45.145C37.364 45.5149 37.3027 45.8487 37.2644 46.1462C37.2261 46.4358 37.2069 46.7213 37.2069 47.0027C37.2069 47.7265 37.4598 48.3257 37.9655 48.8002C38.479 49.2666 39.1954 49.4999 40.115 49.4999C40.7127 49.4999 41.2376 49.4154 41.6897 49.2465C42.1418 49.0857 42.7472 48.8484 43.5058 48.5348Z" />
        <path d="M43.3334 34.2878C43.7778 33.8535 44 33.3308 44 32.7196C44 32.1083 43.7778 31.5856 43.3334 31.1513C42.8966 30.717 42.3678 30.4999 41.7472 30.4999C41.1265 30.4999 40.5939 30.717 40.1495 31.1513C39.705 31.5856 39.4828 32.1083 39.4828 32.7196C39.4828 33.3308 39.705 33.8535 40.1495 34.2878C40.5939 34.7141 41.1265 34.9272 41.7472 34.9272C42.3678 34.9272 42.8966 34.7141 43.3334 34.2878Z" />
        <path fill-rule="evenodd" clip-rule="evenodd" d="M20.1891 40C20.1891 29.0587 29.0588 20.1891 40 20.1891C50.9412 20.1891 59.8109 29.0587 59.8109 40C59.8109 50.9412 50.9412 59.8109 40 59.8109C29.0588 59.8109 20.1891 50.9412 20.1891 40ZM40 24.1891C31.2679 24.1891 24.1891 31.2679 24.1891 40C24.1891 48.7321 31.2679 55.8109 40 55.8109C48.7321 55.8109 55.8109 48.7321 55.8109 40C55.8109 31.2679 48.7321 24.1891 40 24.1891Z" />

    </symbol>

    <symbol id="LocationL">
        <path fill-rule="evenodd" clip-rule="evenodd" d="M20.7056 30.2701C20.7056 20.0867 28.9609 11.8315 39.1443 11.8315C49.3277 11.8315 57.5829 20.0867 57.5829 30.2701C57.5829 32.3659 57.2787 33.5131 56.9111 34.3798C56.7115 34.8505 56.4649 35.3045 56.1364 35.864C56.0526 36.0068 55.9584 36.1646 55.8573 36.3339L55.8555 36.3369C55.604 36.7583 55.3098 37.251 55.0276 37.7598L39.1183 62.9876L22.7314 37.5297C21.8127 35.9994 20.7056 33.0686 20.7056 30.2701ZM39.1443 5.81396C25.6375 5.81396 14.6881 16.7634 14.6881 30.2701C14.6881 34.4061 16.2369 38.4251 17.6052 40.6816L17.6261 40.7162L39.1703 74.1861L60.2117 40.8203L60.2549 40.7417C60.4976 40.3007 60.7205 39.9275 60.9627 39.5221C61.0779 39.3292 61.1976 39.1288 61.3257 38.9105C61.6986 38.2754 62.0993 37.5586 62.4509 36.7294C63.1859 34.9965 63.6004 33.028 63.6004 30.2701C63.6004 16.7634 52.6511 5.81396 39.1443 5.81396ZM36.4347 29.2998C36.4347 27.8034 37.6479 26.5902 39.1444 26.5902C40.6408 26.5902 41.854 27.8034 41.854 29.2998C41.854 30.7963 40.6408 32.0094 39.1444 32.0094C37.6479 32.0094 36.4347 30.7963 36.4347 29.2998ZM39.1444 20.5727C34.3245 20.5727 30.4172 24.48 30.4172 29.2998C30.4172 34.1197 34.3245 38.0269 39.1444 38.0269C43.9642 38.0269 47.8715 34.1197 47.8715 29.2998C47.8715 24.48 43.9642 20.5727 39.1444 20.5727Z" />

    </symbol>

    <symbol id="DateL">
        <path fill-rule="evenodd" clip-rule="evenodd" d="M31.8948 13.8303V19.6932H46.722V13.8303H52.6625V19.6932H63.2569L63.2572 66.167H20.9718V66.1697H15.0314L15.0314 19.6938L25.9543 19.6932V13.8303H31.8948ZM57.3164 32.6847H20.9718L20.9718 60.2266H57.3164V32.6847Z" />

    </symbol>


    <symbol id="ListL">
       <path d="M27.403 26.1669H62.6483V19.9471H27.403V26.1669Z" />
        <path d="M15.6402 26.1796H21.86V19.9598H15.6402V26.1796Z" />
        <path d="M21.86 43.1138H15.6402V36.8941H21.86V43.1138Z" />
        <path d="M15.6402 60.0486H21.86V53.8289H15.6402V60.0486Z" />
        <path d="M62.6483 43.1184H27.403V36.8986H62.6483V43.1184Z" />
        <path d="M27.4029 60.0527L49.4552 60.0529L49.4552 53.8332L27.403 53.8329L27.4029 60.0527Z" />
    </symbol>

    <symbol id="CopyL">
       <path fill-rule="evenodd" clip-rule="evenodd" d="M69.6696 14.6139L26.1974 12.3359L25.6067 23.6056H8.61897V67.664H54.0905V57.6052L67.3798 58.3016L69.6696 14.6139ZM54.0905 51.5492L61.6562 51.9457L63.3129 20.3368L31.921 18.6919L31.6634 23.6056H54.0905V51.5492ZM14.6674 61.6163V29.6533H48.0421V61.6163H14.6674Z" />

    </symbol>

    <symbol id="EyeL">
        <path d="M13.9396 39.0113C17.6344 34.4268 25.2732 29.6364 34.5502 28.4483C43.6968 27.277 54.4475 29.6075 64.5501 39.2509L66.3584 40.9771L69.8108 37.3603L68.0024 35.6341C56.7795 24.9212 44.5153 22.1313 33.9151 23.4888C23.4453 24.8296 14.6053 30.2173 10.0465 35.8737L8.47775 37.8202L12.3708 40.9578L13.9396 39.0113Z" />
        <path fill-rule="evenodd" clip-rule="evenodd" d="M48.828 47.1359C48.828 52.4895 44.4882 56.8294 39.1346 56.8294C33.7811 56.8294 29.4412 52.4895 29.4412 47.1359C29.4412 41.7824 33.7811 37.4425 39.1346 37.4425C44.4882 37.4425 48.828 41.7824 48.828 47.1359ZM43.828 47.1359C43.828 49.728 41.7267 51.8294 39.1346 51.8294C36.5425 51.8294 34.4412 49.728 34.4412 47.1359C34.4412 44.5438 36.5425 42.4425 39.1346 42.4425C41.7267 42.4425 43.828 44.5438 43.828 47.1359Z" />

    </symbol>

    <symbol id="Options">
        <path d="M54.6443 33L23.6443 32.9999L23.6443 26.9999L54.6443 27L54.6443 33Z" />
        <path d="M54.6443 43L23.6443 42.9999L23.6443 36.9999L54.6443 37L54.6443 43Z" />
        <path d="M23.6443 53.0001L54.6443 53.0002L54.6443 47.0002L23.6443 47.0001L23.6443 53.0001Z" />
    </symbol>

    <symbol id="Magnify">
        <path fill-rule="evenodd" clip-rule="evenodd" d="M38.8171 25.0295C31.2638 25.0295 25.1407 31.1526 25.1407 38.7059C25.1407 46.2591 31.2638 52.3822 38.8171 52.3822C41.8901 52.3822 44.7279 51.3679 47.0116 49.6564L52.3257 54.9704L54.8593 52.4368L49.5744 47.152C51.4024 44.8267 52.4934 41.8929 52.4934 38.7059C52.4934 31.1526 46.3703 25.0295 38.8171 25.0295ZM28.7238 38.7059C28.7238 33.1315 33.2427 28.6126 38.8171 28.6126C44.3914 28.6126 48.9104 33.1315 48.9104 38.7059C48.9104 44.2802 44.3914 48.7992 38.8171 48.7992C33.2427 48.7992 28.7238 44.2802 28.7238 38.7059Z" />

    </symbol>

    <symbol id="CrossL">
        <path d="M42.1598 20.0596H35.1598V36.9713H19.6183V43.9713H35.1598V59.9405H42.1598V43.9713H58.6702V36.9713H42.1598V20.0596Z" />
  
    </symbol>
    
    <symbol id="Compass">
        <path fill-rule="evenodd" clip-rule="evenodd" d="M53.4671 25.6953L38.6521 54.3049L38.2447 40.9099L24.8215 40.4274L53.4671 25.6953ZM36.4083 37.8419L41.158 38.0126L41.2996 42.6683L46.4814 32.6614L36.4083 37.8419Z" />

    </symbol>

    <symbol id="Minus">
        <path fill-rule="evenodd" clip-rule="evenodd" d="M49.5 41.4999L30.5 41.5L30.5 38.5L49.5 38.4999L49.5 41.4999Z" />

    </symbol>

    <symbol id="!">
        <path d="M42.3557 43.7629V30.7629H39.3557V43.7629H42.3557Z" />
        <path d="M40.8557 49.2368C41.6841 49.2368 42.3557 48.5652 42.3557 47.7368C42.3557 46.9084 41.6841 46.2368 40.8557 46.2368C40.0273 46.2368 39.3557 46.9084 39.3557 47.7368C39.3557 48.5652 40.0273 49.2368 40.8557 49.2368Z" />

    </symbol>

    <symbol id="Ig">
        <path fill-rule="evenodd" clip-rule="evenodd" d="M40.0015 24C35.6561 24 35.1108 24.019 33.4041 24.0967C31.7007 24.1747 30.5381 24.4443 29.5207 24.84C28.4684 25.2487 27.5757 25.7953 26.6864 26.685C25.7964 27.5743 25.2497 28.467 24.8397 29.519C24.443 30.5367 24.173 31.6997 24.0963 33.4023C24.02 35.109 24 35.6547 24 40C24 44.3453 24.0193 44.889 24.0967 46.5957C24.175 48.299 24.4447 49.4617 24.84 50.479C25.249 51.5313 25.7957 52.424 26.6854 53.3133C27.5744 54.2033 28.467 54.7513 29.5187 55.16C30.5367 55.5557 31.6997 55.8253 33.4028 55.9033C35.1095 55.981 35.6545 56 39.9995 56C44.3452 56 44.8889 55.981 46.5956 55.9033C48.2989 55.8253 49.4629 55.5557 50.4809 55.16C51.5329 54.7513 52.4243 54.2033 53.3133 53.3133C54.2033 52.424 54.75 51.5313 55.16 50.4793C55.5533 49.4617 55.8233 48.2987 55.9033 46.596C55.98 44.8893 56 44.3453 56 40C56 35.6547 55.98 35.1093 55.9033 33.4027C55.8233 31.6993 55.5533 30.5367 55.16 29.5193C54.75 28.467 54.2033 27.5743 53.3133 26.685C52.4233 25.795 51.5333 25.2483 50.4799 24.84C49.4599 24.4443 48.2966 24.1747 46.5932 24.0967C44.8866 24.019 44.3432 24 39.9965 24H40.0015ZM39.4682 26.8832L40.0015 26.8833C44.2735 26.8833 44.7799 26.8987 46.4669 26.9753C48.0269 27.0467 48.8736 27.3073 49.4376 27.5263C50.1843 27.8163 50.7166 28.163 51.2763 28.723C51.8363 29.283 52.183 29.8163 52.4736 30.563C52.6926 31.1263 52.9536 31.973 53.0246 33.533C53.1013 35.2197 53.118 35.7263 53.118 39.9963C53.118 44.2663 53.1013 44.773 53.0246 46.4597C52.9533 48.0197 52.6926 48.8663 52.4736 49.4297C52.1836 50.1763 51.8363 50.708 51.2763 51.2677C50.7163 51.8277 50.1846 52.1743 49.4376 52.4643C48.8743 52.6843 48.0269 52.9443 46.4669 53.0157C44.7802 53.0923 44.2735 53.109 40.0015 53.109C35.7291 53.109 35.2228 53.0923 33.5361 53.0157C31.9761 52.9437 31.1294 52.683 30.5651 52.464C29.8184 52.174 29.2851 51.8273 28.725 51.2673C28.165 50.7073 27.8184 50.1753 27.5277 49.4283C27.3087 48.865 27.0477 48.0183 26.9767 46.4583C26.9 44.7717 26.8847 44.265 26.8847 39.9923C26.8847 35.7197 26.9 35.2157 26.9767 33.529C27.048 31.969 27.3087 31.1223 27.5277 30.5583C27.8177 29.8117 28.165 29.2783 28.725 28.7183C29.2851 28.1583 29.8184 27.8117 30.5651 27.521C31.1291 27.301 31.9761 27.041 33.5361 26.9693C35.0121 26.9027 35.5841 26.8827 38.5661 26.8793V26.8833C38.8447 26.8829 39.1448 26.883 39.4682 26.8832ZM46.6222 31.4593C46.6222 30.399 47.4822 29.54 48.5423 29.54C49.6023 29.54 50.4623 30.3993 50.4623 31.4593C50.4623 32.5193 49.6023 33.3793 48.5423 33.3793C47.4822 33.3793 46.6222 32.5193 46.6222 31.4593ZM40.0012 31.7833C35.4636 31.7835 31.7847 35.4624 31.7847 40C31.7847 44.5377 35.4638 48.215 40.0015 48.215C44.5392 48.215 48.2169 44.5377 48.2169 40C48.2169 35.4623 44.5389 31.7833 40.0012 31.7833ZM45.3349 40C45.3349 37.0543 42.9469 34.6667 40.0015 34.6667C37.0558 34.6667 34.6681 37.0543 34.6681 40C34.6681 42.9453 37.0558 45.3333 40.0015 45.3333C42.9469 45.3333 45.3349 42.9453 45.3349 40Z" />
    </symbol>

    <symbol id="Link">
        <path d="M48.829 21.8791C46.1197 21.8555 43.5095 22.8971 41.5606 24.7794L41.5399 24.7996L38.6732 27.6496C37.8899 28.4284 37.8862 29.6947 38.665 30.478C39.4438 31.2613 40.7101 31.265 41.4934 30.4863L44.3491 27.6471C45.5426 26.4994 47.1382 25.8645 48.7943 25.8789C50.4549 25.8933 52.0433 26.5594 53.2176 27.7337C54.3918 28.9079 55.0579 30.4964 55.0723 32.157C55.0867 33.8122 54.4525 35.407 53.3059 36.6002L48.3191 41.587C47.6771 42.2293 46.9041 42.7263 46.0532 43.0437C45.2023 43.3611 44.2931 43.4918 43.3873 43.4269C42.4814 43.3621 41.6001 43.1031 40.8032 42.6677C40.0062 42.2323 39.3122 41.6305 38.7682 40.9033C38.1066 40.0188 36.8532 39.8381 35.9687 40.4997C35.0842 41.1613 34.9035 42.4147 35.5651 43.2992C36.4527 44.4858 37.585 45.4675 38.8853 46.178C40.1857 46.8884 41.6236 47.3109 43.1015 47.4167C44.5795 47.5226 46.0629 47.3093 47.4512 46.7914C48.8394 46.2736 50.1 45.4633 51.1475 44.4155L56.1475 39.4155C56.1557 39.4073 56.1639 39.399 56.1719 39.3907C58.0542 37.4418 59.0957 34.8316 59.0722 32.1222C59.0487 29.4128 57.9619 26.8211 56.046 24.9052C54.1301 22.9893 51.5384 21.9026 48.829 21.8791Z" />
        <path d="M37.8984 33.4524C36.4205 33.3466 34.937 33.5598 33.5487 34.0777C32.1606 34.5955 30.9 35.4058 29.8525 36.4537L24.8525 41.4537C24.8443 41.4619 24.8361 41.4701 24.8281 41.4785C22.9458 43.4273 21.9042 46.0376 21.9278 48.7469C21.9513 51.4563 23.0381 54.048 24.954 55.9639C26.8698 57.8798 29.4616 58.9665 32.1709 58.9901C34.8803 59.0136 37.4905 57.9721 39.4394 56.0898C39.4478 56.0817 39.456 56.0736 39.4642 56.0654L42.3142 53.2154C43.0953 52.4344 43.0953 51.168 42.3142 50.387C41.5332 49.6059 40.2668 49.6059 39.4858 50.387L36.6489 53.2239C35.4557 54.3704 33.8609 55.0046 32.2057 54.9902C30.5451 54.9758 28.9566 54.3097 27.7824 53.1355C26.6081 51.9612 25.9421 50.3728 25.9276 48.7122C25.9133 47.057 26.5474 45.4622 27.694 44.269L32.6809 39.2821C33.3229 38.6398 34.0959 38.1428 34.9468 37.8254C35.7977 37.508 36.7069 37.3773 37.6127 37.4422C38.5186 37.5071 39.3999 37.766 40.1968 38.2014C40.9938 38.6369 41.6878 39.2386 42.2318 39.9658C42.8934 40.8503 44.1468 41.031 45.0313 40.3694C45.9158 39.7078 46.0965 38.4544 45.4349 37.5699C44.5473 36.3834 43.415 35.4016 42.1147 34.6912C40.8143 33.9807 39.3764 33.5583 37.8984 33.4524Z" />
    </symbol>

    <symbol id="PenL">
        <path fill-rule="evenodd" clip-rule="evenodd" d="M19.1187 47.7779L19.0707 47.7299L46.2078 20.5928L59.4824 33.8673L32.3453 61.0044L32.2922 60.9514C32.0362 61.1549 31.7121 61.2765 31.3597 61.2765H18.8062L18.8062 48.6945C18.8062 48.3493 18.9228 48.0314 19.1187 47.7779ZM23.3134 47.7299L46.2078 24.8354L55.2397 33.8673L32.3453 56.7618L23.3134 47.7299ZM21.8062 50.4654L21.8062 58.2765H29.6173L21.8062 50.4654Z" />

    </symbol>

    <symbol id="MailL">
        <path fill-rule="evenodd" clip-rule="evenodd" d="M63.5791 19.8154H12.998V62.0535H63.5791V19.8154ZM38.2886 40.2379L21.2009 23.8154H55.3764L38.2886 40.2379ZM16.998 58.0535V25.324L37.9332 45.4441L38.2767 45.8014L38.2895 45.7889L38.3014 45.8004L38.6436 45.4444L59.5791 25.3242V58.0535H16.998Z" />

    </symbol>

    <symbol id="CompassL">
        <path fill-rule="evenodd" clip-rule="evenodd" d="M64.3499 14.906L37.3931 66.9631L36.6517 42.59L12.2273 41.7121L64.3499 14.906ZM33.3103 37.0076L41.9526 37.3182L42.2103 45.7895L51.639 27.5814L33.3103 37.0076Z" />

    </symbol>

    <symbol id="?">
        <path d="M40 35.282C38.8366 35.282 37.8935 36.2251 37.8935 37.3884H34.8935C34.8935 34.5682 37.1798 32.282 40 32.282C42.8202 32.282 45.1065 34.5682 45.1065 37.3884C45.1065 38.7815 44.5487 40.0442 43.6442 40.9655C43.175 41.4435 42.6124 41.8296 41.986 42.0943V43.677H38.986V39.4866H40.1885C41.2636 39.3912 42.1065 38.4883 42.1065 37.3884C42.1065 36.2251 41.1634 35.282 40 35.282Z" />
<path d="M41.9162 46.4768H38.806V49.587H41.9162V46.4768Z" />
    </symbol>
  
    <symbol id="Idea">
        <path fill-rule="evenodd" clip-rule="evenodd" d="M40.2727 26C41.3773 26 42.2727 26.8954 42.2727 28V32.9091C42.2727 34.0137 41.3773 34.9091 40.2727 34.9091C39.1682 34.9091 38.2727 34.0137 38.2727 32.9091V28C38.2727 26.8954 39.1682 26 40.2727 26Z" />
        <path fill-rule="evenodd" clip-rule="evenodd" d="M40.2727 45.6364C41.3773 45.6364 42.2727 46.5318 42.2727 47.6364V52.5454C42.2727 53.65 41.3773 54.5454 40.2727 54.5454C39.1682 54.5454 38.2727 53.65 38.2727 52.5454V47.6364C38.2727 46.5318 39.1682 45.6364 40.2727 45.6364Z" />
        <path fill-rule="evenodd" clip-rule="evenodd" d="M30.1817 30.1817C30.9628 29.4007 32.2291 29.4007 33.0101 30.1817L36.4833 33.6549C37.2644 34.436 37.2644 35.7023 36.4833 36.4833C35.7023 37.2644 34.4359 37.2644 33.6549 36.4833L30.1817 33.0102C29.4007 32.2291 29.4007 30.9628 30.1817 30.1817Z" />
        <path fill-rule="evenodd" clip-rule="evenodd" d="M44.0621 44.0621C44.8432 43.2811 46.1095 43.2811 46.8906 44.0621L50.3638 47.5353C51.1448 48.3163 51.1448 49.5827 50.3638 50.3637C49.5827 51.1448 48.3164 51.1448 47.5353 50.3637L44.0621 46.8905C43.2811 46.1095 43.2811 44.8432 44.0621 44.0621Z" />
        <path fill-rule="evenodd" clip-rule="evenodd" d="M26 40.2727C26 39.1681 26.8954 38.2727 28 38.2727H32.9091C34.0137 38.2727 34.9091 39.1681 34.9091 40.2727C34.9091 41.3773 34.0137 42.2727 32.9091 42.2727H28C26.8954 42.2727 26 41.3773 26 40.2727Z" />
        <path fill-rule="evenodd" clip-rule="evenodd" d="M45.6364 40.2727C45.6364 39.1681 46.5318 38.2727 47.6364 38.2727H52.5455C53.65 38.2727 54.5455 39.1681 54.5455 40.2727C54.5455 41.3773 53.65 42.2727 52.5455 42.2727H47.6364C46.5318 42.2727 45.6364 41.3773 45.6364 40.2727Z" />
        <path fill-rule="evenodd" clip-rule="evenodd" d="M36.4833 44.0621C37.2644 44.8432 37.2644 46.1095 36.4833 46.8905L33.0101 50.3637C32.2291 51.1448 30.9628 51.1448 30.1817 50.3637C29.4007 49.5827 29.4007 48.3163 30.1817 47.5353L33.6549 44.0621C34.4359 43.2811 35.7023 43.2811 36.4833 44.0621Z" />
        <path fill-rule="evenodd" clip-rule="evenodd" d="M50.3638 30.1817C51.1448 30.9628 51.1448 32.2291 50.3638 33.0102L46.8906 36.4833C46.1095 37.2644 44.8432 37.2644 44.0621 36.4833C43.2811 35.7023 43.2811 34.436 44.0621 33.6549L47.5353 30.1817C48.3164 29.4007 49.5827 29.4007 50.3638 30.1817Z" />
    </symbol>
  
    <symbol id="Largecube">
        <path fill-rule="evenodd" clip-rule="evenodd" d="M39.8801 13L63 24.296V54.7034L39.8801 66L16 52.6881V26.3117L39.8801 13ZM40.0511 19.5713L25.2526 27.8206L39.8216 34.6249L53.9718 26.3728L40.0511 19.5713ZM57.284 31.1794L42.8236 39.6123V58.074L57.284 51.0085V31.1794ZM37.1076 57.7878V39.793L21.716 32.6045V49.2078L37.1076 57.7878Z" />
    </symbol>

    <symbol id="Largeidea">
        <path fill-rule="evenodd" clip-rule="evenodd" d="M40 16C41.8574 16 43.3631 17.5057 43.3631 19.3631V27.6178C43.3631 29.4752 41.8574 30.9809 40 30.9809C38.1426 30.9809 36.637 29.4752 36.637 27.6178V19.3631C36.637 17.5057 38.1426 16 40 16Z" />
        <path fill-rule="evenodd" clip-rule="evenodd" d="M40 49.0191C41.8574 49.0191 43.3631 50.5248 43.3631 52.3822V60.6369C43.3631 62.4943 41.8574 64 40 64C38.1426 64 36.637 62.4943 36.637 60.6369V52.3822C36.637 50.5248 38.1426 49.0191 40 49.0191Z" />
        <path fill-rule="evenodd" clip-rule="evenodd" d="M23.0317 23.0317C24.345 21.7184 26.4744 21.7184 27.7877 23.0317L33.628 28.872C34.9413 30.1853 34.9413 32.3147 33.628 33.628C32.3146 34.9414 30.1853 34.9414 28.8719 33.628L23.0317 27.7878C21.7183 26.4744 21.7183 24.3451 23.0317 23.0317Z" />
        <path fill-rule="evenodd" clip-rule="evenodd" d="M46.372 46.372C47.6854 45.0586 49.8147 45.0586 51.1281 46.372L56.9684 52.2122C58.2817 53.5256 58.2817 55.655 56.9684 56.9683C55.655 58.2817 53.5256 58.2817 52.2123 56.9683L46.372 51.128C45.0587 49.8147 45.0587 47.6853 46.372 46.372Z" />
        <path fill-rule="evenodd" clip-rule="evenodd" d="M16 40C16 38.1426 17.5057 36.6369 19.3631 36.6369H27.6178C29.4752 36.6369 30.9809 38.1426 30.9809 40C30.9809 41.8573 29.4752 43.363 27.6178 43.363H19.3631C17.5057 43.363 16 41.8573 16 40Z" />
        <path fill-rule="evenodd" clip-rule="evenodd" d="M49.0191 40C49.0191 38.1426 50.5248 36.6369 52.3822 36.6369H60.6369C62.4943 36.6369 64 38.1426 64 40C64 41.8573 62.4943 43.363 60.6369 43.363H52.3822C50.5248 43.363 49.0191 41.8573 49.0191 40Z" />
        <path fill-rule="evenodd" clip-rule="evenodd" d="M33.628 46.372C34.9413 47.6853 34.9413 49.8147 33.628 51.128L27.7877 56.9683C26.4744 58.2817 24.345 58.2817 23.0317 56.9683C21.7183 55.655 21.7183 53.5256 23.0317 52.2122L28.8719 46.372C30.1853 45.0586 32.3146 45.0586 33.628 46.372Z" />
        <path fill-rule="evenodd" clip-rule="evenodd" d="M56.9684 23.0317C58.2817 24.3451 58.2817 26.4744 56.9684 27.7878L51.1281 33.628C49.8147 34.9414 47.6854 34.9414 46.372 33.628C45.0587 32.3147 45.0587 30.1853 46.372 28.872L52.2123 23.0317C53.5256 21.7184 55.655 21.7184 56.9684 23.0317Z" />
    </symbol>
    
    <symbol id="Largeperson">
        <path fill-rule="evenodd" clip-rule="evenodd" d="M39.0001 17C32.5317 17 27.2881 22.264 27.2881 28.7576C27.2881 33.1401 29.6765 36.9626 33.218 38.9847C24.4317 41.5055 18 49.6274 18 59.2573V62H60V59.2573C60 49.6274 53.5683 41.5056 44.7821 38.9848C48.3236 36.9626 50.7121 33.1401 50.7121 28.7576C50.7121 22.264 45.4684 17 39.0001 17ZM32.7523 28.7576C32.7523 25.2936 35.5495 22.4855 39.0001 22.4855C42.4506 22.4855 45.2478 25.2936 45.2478 28.7576C45.2478 32.2215 42.4506 35.0296 39.0001 35.0296C35.5495 35.0296 32.7523 32.2215 32.7523 28.7576ZM39 43.661C46.648 43.661 53.0053 49.2089 54.2963 56.5145H23.7037C24.9947 49.2089 31.352 43.661 39 43.661Z"/>
    </symbol>

    <symbol id="Mastodon">
        <path d="M54.9988 34.5058C54.9988 27.5633 50.4272 25.5296 50.4272 25.5296C48.1229 24.4768 44.1656 24.0336 40.0539 24H39.9526C35.8409 24.0336 31.8868 24.4768 29.5809 25.5296C29.5809 25.5296 25.0093 27.5649 25.0093 34.5058C25.0093 36.0946 24.9787 37.9955 25.0286 40.0115C25.1942 46.8004 26.2796 53.4918 32.5879 55.1526C35.4968 55.919 37.994 56.079 40.004 55.9686C43.651 55.767 45.698 54.6742 45.698 54.6742L45.5774 52.0405C45.5774 52.0405 42.9708 52.8582 40.0443 52.759C37.1434 52.6598 34.0833 52.4485 33.6138 48.9045C33.5694 48.5751 33.5479 48.2431 33.5495 47.9109C33.5495 47.9109 36.3957 48.6037 40.004 48.7685C42.2102 48.8693 44.2782 48.6405 46.3798 48.3909C50.4095 47.9125 53.9182 45.442 54.3588 43.1844C55.0567 39.6275 54.9988 34.5058 54.9988 34.5058ZM49.6071 43.45H46.2608V35.2914C46.2608 33.5714 45.534 32.6994 44.0788 32.6994C42.4708 32.6994 41.6651 33.7346 41.6651 35.7826V40.2483H38.3381V35.7826C38.3381 33.7346 37.5325 32.6994 35.9229 32.6994C34.4676 32.6994 33.7408 33.573 33.7408 35.2914V43.45H30.3945V35.045C30.3945 33.3266 30.8335 31.9618 31.7179 30.9521C32.6281 29.9425 33.8196 29.4241 35.3006 29.4241C37.0131 29.4241 38.3108 30.0785 39.1679 31.3889L40.0008 32.7794L40.8354 31.3889C41.6925 30.0785 42.9901 29.4241 44.7027 29.4241C46.1821 29.4241 47.3752 29.9425 48.2853 30.9521C49.1681 31.9618 49.6071 33.3266 49.6071 35.045V43.45Z" />
    </symbol>
    <symbol id="Snapchat">
        <path d="M31.2576 29.4273C30.4076 31.3303 30.7433 34.7398 30.8793 37.1242C29.9613 37.6326 28.7826 36.7405 28.1154 36.7405C27.4212 36.7405 26.5924 37.1965 26.4621 37.8761C26.3686 38.366 26.5882 39.0796 28.1635 39.7012C28.7727 39.9419 30.222 40.2251 30.5577 41.0152C31.0295 42.1253 28.1352 47.2496 23.5904 47.9972C23.2348 48.0552 22.9813 48.3724 23.0011 48.732C23.0804 50.1126 26.1773 50.6535 27.5501 50.8658C27.6903 51.0556 27.8037 51.857 27.9836 52.4673C28.0644 52.7405 28.2726 53.0676 28.8081 53.0676C29.5065 53.0676 30.6668 52.5296 32.687 52.8637C34.6676 53.1936 36.5291 56 40.1034 56C43.4256 56 45.4075 53.1809 47.3144 52.8637C48.418 52.6811 49.3658 52.7391 50.4254 52.9458C51.155 53.0888 51.8096 53.1681 52.0178 52.4517C52.2006 51.8329 52.3125 51.0471 52.4499 50.8616C53.8099 50.6506 56.921 50.1112 56.9989 48.7306C57.0187 48.371 56.7652 48.0552 56.4096 47.9958C51.9413 47.2595 48.9592 42.1508 49.4423 41.0138C49.7766 40.2251 51.216 39.9448 51.8365 39.6998C52.9897 39.2453 53.5677 38.686 53.5549 38.0389C53.5393 37.2106 52.542 36.7165 51.8081 36.7165C51.0615 36.7165 49.9891 37.6 49.1207 37.1214C49.2567 34.7172 49.591 31.3232 48.7424 29.4216C47.1345 25.8209 43.5573 24 39.9816 24C36.4285 24 32.8783 25.7954 31.2576 29.4273Z" />
    </symbol>
    <symbol id="TikTok">
        <path d="M50.5131 30.8437C50.2951 30.732 50.0828 30.6097 49.8771 30.477C49.279 30.0853 48.7306 29.6238 48.2437 29.1024C47.0256 27.7218 46.5706 26.3212 46.4031 25.3406H46.4098C46.2698 24.5266 46.3277 24 46.3364 24H40.7881V45.2509C40.7881 45.5363 40.7881 45.8182 40.776 46.0969C40.776 46.1316 40.7727 46.1636 40.7706 46.2009C40.7706 46.2162 40.7706 46.2322 40.7673 46.2482C40.7673 46.2522 40.7673 46.2562 40.7673 46.2602C40.7088 47.0227 40.462 47.7593 40.0487 48.4051C39.6354 49.051 39.0682 49.5863 38.3969 49.964C37.6974 50.3583 36.9061 50.565 36.1013 50.564C33.5163 50.564 31.4212 48.4761 31.4212 45.8976C31.4212 43.319 33.5163 41.2311 36.1013 41.2311C36.5906 41.2307 37.0769 41.307 37.5422 41.4571L37.5489 35.8614C36.1365 35.6807 34.7016 35.7919 33.3348 36.188C31.9679 36.584 30.6988 37.2564 29.6074 38.1626C28.6511 38.9857 27.8471 39.9677 27.2317 41.0645C26.9975 41.4645 26.1138 43.0717 26.0068 45.6803C25.9395 47.1608 26.3884 48.6948 26.6024 49.3287V49.3421C26.737 49.7154 27.2586 50.9893 28.1086 52.0633C28.794 52.9247 29.6038 53.6815 30.5119 54.3092V54.2958L30.5254 54.3092C33.2114 56.1171 36.1895 55.9984 36.1895 55.9984C36.705 55.9777 38.4319 55.9984 40.3931 55.0778C42.5682 54.0572 43.8066 52.5366 43.8066 52.5366C44.5977 51.628 45.2268 50.5926 45.6668 49.4747C46.1689 48.1675 46.3364 46.5995 46.3364 45.9729V34.6988C46.4037 34.7388 47.3002 35.3261 47.3002 35.3261C47.3002 35.3261 48.5917 36.1461 50.6067 36.68C52.0523 37.06 54 37.14 54 37.14V31.6843C53.3176 31.7576 51.9318 31.5443 50.5131 30.8437Z" />
    </symbol>
    <symbol id="Bluesky">
        <path d="M24 28.5714C24 26.05 26.05 24 28.5714 24H51.4286C53.95 24 56 26.05 56 28.5714V51.4286C56 53.95 53.95 56 51.4286 56H28.5714C26.05 56 24 53.95 24 51.4286V28.5714Z" />
    </symbol>
    <symbol id="Threads">
        <path d="M47.788 38.8314C47.6479 38.7653 47.5055 38.7017 47.3612 38.6409C47.11 34.0897 44.5808 31.4842 40.3339 31.4575C40.3147 31.4574 40.2955 31.4574 40.2763 31.4574C37.7361 31.4574 35.6235 32.5235 34.3232 34.4635L36.6588 36.0388C37.6302 34.5897 39.1547 34.2808 40.2774 34.2808C40.2904 34.2808 40.3034 34.2808 40.3162 34.2809C41.7146 34.2897 42.7698 34.6894 43.4527 35.469C43.9497 36.0366 44.2821 36.8208 44.4467 37.8106C43.2069 37.6035 41.8661 37.5397 40.4328 37.6205C36.395 37.8492 33.7992 40.1646 33.9736 43.382C34.0621 45.014 34.8889 46.418 36.3018 47.3352C37.4964 48.1105 39.035 48.4897 40.634 48.4038C42.7457 48.29 44.4023 47.4978 45.558 46.0493C46.4357 44.9493 46.9908 43.5238 47.236 41.7277C48.2423 42.3248 48.9882 43.1107 49.4001 44.0553C50.1005 45.6612 50.1413 48.3 47.9514 50.4513C46.0328 52.336 43.7265 53.1513 40.241 53.1765C36.3746 53.1483 33.4505 51.9292 31.5494 49.5528C29.7691 47.3277 28.849 44.1137 28.8147 40C28.849 35.8863 29.7691 32.6723 31.5494 30.4471C33.4505 28.0708 36.3745 26.8517 40.2409 26.8234C44.1353 26.8519 47.1104 28.0769 49.0843 30.4647C50.0522 31.6356 50.7819 33.1081 51.263 34.8251L54 34.107C53.4169 31.9937 52.4993 30.1726 51.2507 28.6623C48.7202 25.6011 45.0191 24.0325 40.2504 24H40.2314C35.4724 24.0324 31.8128 25.607 29.3543 28.6799C27.1665 31.4144 26.038 35.2193 26.0001 39.9888L26 40L26.0001 40.0112C26.038 44.7807 27.1665 48.5857 29.3543 51.3202C31.8128 54.393 35.4724 55.9677 40.2314 56H40.2504C44.4814 55.9712 47.4638 54.882 49.9206 52.4685C53.135 49.311 53.0382 45.3532 51.9788 42.9235C51.2187 41.1812 49.7696 39.766 47.788 38.8314ZM40.4828 45.5845C38.7132 45.6825 36.8747 44.9015 36.784 43.2287C36.7168 41.9883 37.6818 40.6043 40.5914 40.4395C40.9247 40.4206 41.2516 40.4113 41.5729 40.4113C42.6297 40.4113 43.6185 40.5123 44.5174 40.7055C44.1821 44.8225 42.2155 45.491 40.4828 45.5845Z" />
    </symbol>
    <symbol id="CopyLink">
        <path d="M25.7239 25.8626C25.9739 25.6126 26.3131 25.4721 26.6667 25.4721H41.6667C42.0203 25.4721 42.3594 25.6126 42.6095 25.8626C42.8595 26.1127 43 26.4518 43 26.8054V28.4721C43 29.5767 43.8954 30.4721 45 30.4721C46.1046 30.4721 47 29.5767 47 28.4721V26.8054C47 25.3909 46.4381 24.0344 45.4379 23.0342C44.4377 22.034 43.0812 21.4721 41.6667 21.4721H26.6667C25.2522 21.4721 23.8956 22.034 22.8954 23.0342C21.8952 24.0344 21.3333 25.3909 21.3333 26.8054V41.8054C21.3333 43.2199 21.8952 44.5765 22.8954 45.5767C23.8956 46.5769 25.2522 47.1388 26.6667 47.1388H28.3333C29.4379 47.1388 30.3333 46.2433 30.3333 45.1388C30.3333 44.0342 29.4379 43.1388 28.3333 43.1388H26.6667C26.3131 43.1388 25.9739 42.9983 25.7239 42.7482C25.4738 42.4982 25.3333 42.159 25.3333 41.8054V26.8054C25.3333 26.4518 25.4738 26.1127 25.7239 25.8626Z"/>
        <path fill-rule="evenodd" clip-rule="evenodd" d="M38.3333 33.1388C35.3878 33.1388 33 35.5266 33 38.4721V53.4721C33 56.4176 35.3878 58.8054 38.3333 58.8054H53.3333C56.2789 58.8054 58.6667 56.4176 58.6667 53.4721V38.4721C58.6667 35.5266 56.2789 33.1388 53.3333 33.1388H38.3333ZM37 38.4721C37 37.7357 37.597 37.1388 38.3333 37.1388H53.3333C54.0697 37.1388 54.6667 37.7357 54.6667 38.4721V53.4721C54.6667 54.2085 54.0697 54.8054 53.3333 54.8054H38.3333C37.597 54.8054 37 54.2085 37 53.4721V38.4721Z" />
    </symbol>

  </defs>
  <use xlink:href="#Cross" x="0" y="0"   fill="#ACACAC" />
  <use xlink:href="#Cross" x="0" y="80"  fill="#1E29C1" />
  <use xlink:href="#Eye"   x="0" y="160"  fill="#ACACAC" />
  <use xlink:href="#Eye"   x="0" y="240"  fill="#1E29C1" />
  <use xlink:href="#Eye"   x="0" y="320"  fill="#252525" />
  <use xlink:href="#Speach"   x="0" y="400"  fill="#ACACAC" />
  <use xlink:href="#Speach"   x="0" y="480"  fill="#1E29C1" />
  <use xlink:href="#NE"   x="0" y="560"  fill="#ACACAC" />
  <use xlink:href="#NE"   x="0" y="640"  fill="#1E29C1" />
  <use xlink:href="#Tick"   x="0" y="720"  fill="#252525" />
  <use xlink:href="#Tick"   x="0" y="800"  fill="#ACACAC" />
  <use xlink:href="#N"   x="0" y="880"  fill="#ACACAC" />
  <use xlink:href="#N"   x="0" y="960"  fill="#1E29C1" />
  <use xlink:href="#S"   x="0" y="1040"  fill="#ACACAC" />
  <use xlink:href="#S"   x="0" y="1120"  fill="#1E29C1" />
  <use xlink:href="#Flag"   x="0" y="1200"  fill="#ACACAC" />
  <use xlink:href="#Flag"   x="0" y="1280"  fill="#1E29C1" />
  <use xlink:href="#X"   x="0" y="1360"  fill="#ACACAC" />
  <use xlink:href="#Location"   x="0" y="1440"  fill="#ACACAC" />
  <use xlink:href="#Location"   x="0" y="1520"  fill="#1E29C1" />
  <use xlink:href="#Location"   x="0" y="1600"  fill="#252525" />
  <use xlink:href="#Date"   x="0" y="1680"  fill="#ACACAC" />
  <use xlink:href="#Date"   x="0" y="1760"  fill="#1E29C1" />
  <use xlink:href="#Date"   x="0" y="1840"  fill="#252525" />
  <use xlink:href="#Copy"   x="0" y="1920"  fill="#ACACAC" />
  <use xlink:href="#Copy"   x="0" y="2000"  fill="#1E29C1" />
  <use xlink:href="#Copy"   x="0" y="2080"  fill="#252525" />
  <use xlink:href="#List"   x="0" y="2160"  fill="#ACACAC" />
  <use xlink:href="#List"   x="0" y="2240"  fill="#1E29C1" />
  <use xlink:href="#List"   x="0" y="2320"  fill="#252525" />
  <use xlink:href="#Person"   x="0" y="2400"  fill="#252525" />
  <use xlink:href="#Cube"   x="0" y="2480"  fill="#252525" />
  <use xlink:href="#Twitter"   x="0" y="2560"  fill="#00B0ED" />
  <use xlink:href="#Facebook"   x="0" y="2640"  fill="#252525   " />
  <use xlink:href="#Zoom"   x="0" y="2720"  fill="#ACACAC" />
  <use xlink:href="#Zoom"   x="0" y="2800"  fill="#1E29C1" />
  <use xlink:href="#Info"   x="0" y="2880"  fill="#ACACAC" />
  <use xlink:href="#Info"   x="0" y="2960"  fill="#1E29C1" />
  <use xlink:href="#LocationL"   x="0" y="3040"  fill="#252525" />
  <use xlink:href="#DateL"   x="0" y="3120"  fill="#252525" />
  <use xlink:href="#ListL"   x="0" y="3200"  fill="#252525" />
  <use xlink:href="#CopyL"   x="0" y="3280"  fill="#252525" />
  <use xlink:href="#EyeL"   x="0" y="3360"  fill="#252525" />
  <use xlink:href="#Options"   x="0" y="3440"  fill="#1E29C1" />
  <use xlink:href="#Magnify"   x="0" y="3520"  fill="#1E29C1" />
  <use xlink:href="#Person"   x="0" y="3600"  fill="#1E29C1" />
  <use xlink:href="#CrossL"   x="0" y="3680"  fill="#252525" />
  <use xlink:href="#Compass"   x="0" y="3760"  fill="#ffffff" />
  <use xlink:href="#Cross"   x="0" y="3840"  fill="#ffffff" />
  <use xlink:href="#Minus"   x="0" y="3920"  fill="#ffffff" />
  <use xlink:href="#!"   x="0" y="4000"  fill="#ACACAC" />
  <use xlink:href="#Speach"   x="0" y="4080"  fill="#252525" />
  <use xlink:href="#Twitter"   x="0" y="4160"  fill="#252525" />
  <use xlink:href="#Ig"   x="0" y="4240"  fill="#252525" />
  <use xlink:href="#Link"   x="0" y="4320"  fill="#252525" />
  <use xlink:href="#EyeL"   x="0" y="4400"  fill="#1E29C1" />
  <use xlink:href="#PenL"   x="0" y="4480"  fill="#252525" />
  <use xlink:href="#PenL"   x="0" y="4560"  fill="#1E29C1" />
  <use xlink:href="#MailL"   x="0" y="4640"  fill="#252525" />
  <use xlink:href="#MailL"   x="0" y="4720"  fill="#1E29C1" />
  <use xlink:href="#CompassL"   x="0" y="4800"  fill="#ffffff" />
  <use xlink:href="#LocationL"   x="0" y="4880"  fill="#ffffff" />
  <use xlink:href="#Cross"   x="0" y="4960"  fill="#ffffff" />
  <use xlink:href="#Eye"   x="0" y="5040"  fill="#ffffff" />
  <use xlink:href="#Speach"   x="0" y="5120"  fill="#ffffff" />
  <use xlink:href="#NE"   x="0" y="5200"  fill="#ffffff" />
  <use xlink:href="#?"   x="0" y="5280"  fill="#ffffff" />
  <use xlink:href="#?"   x="0" y="5360"  fill="#ACACAC" />
  <use xlink:href="#?"   x="0" y="5440"  fill="#1E29C1" />
  <use xlink:href="#Tick"   x="0" y="5520"  fill="#ffffff" />
  <use xlink:href="#Cross"   x="0" y="5600"  fill="#A7ACED" />
  <use xlink:href="#Eye"   x="0" y="5680"  fill="#A7ACED" />
  <use xlink:href="#Speach"   x="0" y="5760"  fill="#A7ACED" />
  <use xlink:href="#NE"   x="0" y="5840"  fill="#A7ACED" />
  <use xlink:href="#Eye"   x="0" y="5920"  fill="#CBCBCB" />
  <use xlink:href="#Idea"   x="0" y="6000"  fill="#ACACAC" />
  <use xlink:href="#Idea"   x="0" y="6080"  fill="#1E29C1" />
  <use xlink:href="#Idea"   x="0" y="6160"  fill="#252525" />
  <use xlink:href="#Person"   x="0" y="6240"  fill="#ACACAC" />
  <use xlink:href="#Cube"   x="0" y="6320"  fill="#ACACAC" />
  <use xlink:href="#Cube"   x="0" y="6400"  fill="#1E29C1" />
  <use xlink:href="#Largecube"   x="0" y="6480"  fill="#252525" />
  <use xlink:href="#Largeperson"   x="0" y="6560"  fill="#252525" />
  <use xlink:href="#Largeidea"   x="0" y="6640"  fill="#252525" />
  <use xlink:href="#PenL"   x="0" y="6720"  fill="#ffffff" />
  <use xlink:href="#Mastodon"   x="0" y="6800"  fill="#252525" />
  <use xlink:href="#Snapchat"   x="0" y="6880"  fill="#252525" />
  <use xlink:href="#TikTok"   x="0" y="6960"  fill="#252525" />
  <use xlink:href="#Bluesky"   x="0" y="7040"  fill="#252525" />
  <use xlink:href="#Threads"   x="0" y="7120"  fill="#252525" />
  <use xlink:href="#CopyLink"   x="0" y="7200"  fill="#1E29C1" />
</svg>