<?xml version="1.0" standalone="no"?>
<!DOCTYPE svg PUBLIC "-//W3C//DTD SVG 20010904//EN"
 "http://www.w3.org/TR/2001/REC-SVG-20010904/DTD/svg10.dtd">
<svg version="1.0" xmlns="http://www.w3.org/2000/svg"
 width="500.000000pt" height="500.000000pt" viewBox="0 0 500.000000 500.000000"
 preserveAspectRatio="xMidYMid meet">
<metadata>
Created by potrace 1.11, written by Peter Selinger 2001-2013
</metadata>
<g transform="translate(0.000000,500.000000) scale(0.100000,-0.100000)"
fill="#000000" stroke="none">
<path d="M1300 3878 c17 -24 82 -113 143 -198 61 -85 115 -159 120 -165 24
-29 527 -730 527 -735 0 -3 -15 -11 -34 -18 -82 -30 -198 -122 -278 -222 -72
-89 -146 -257 -173 -390 -12 -58 -15 -272 -5 -315 6 -22 13 -56 16 -75 3 -19
19 -69 35 -111 128 -332 411 -525 834 -566 39 -4 333 -7 655 -8 l585 0 3 1423
2 1422 -375 0 -375 0 -2 -485 -3 -485 -72 93 c-57 74 -378 480 -464 587 -11
14 -66 84 -122 157 l-102 132 -473 0 -474 1 32 -42z m1568 -1560 c113 -57 175
-159 176 -288 0 -60 -5 -86 -26 -130 -59 -129 -186 -204 -327 -193 -102 7
-210 83 -258 181 -24 49 -28 69 -28 142 1 101 21 155 85 224 98 106 246 131
378 64z"/>
</g>
</svg>
